<svg width="8" height="12" viewBox="0 0 8 12" fill="none" xmlns="http://www.w3.org/2000/svg">
<path fill-rule="evenodd" clip-rule="evenodd" d="M7.5 1.25C7.5 1.58152 7.3683 1.89946 7.13388 2.13388C6.89946 2.3683 6.58152 2.5 6.25 2.5C5.91848 2.5 5.60054 2.3683 5.36612 2.13388C5.1317 1.89946 5 1.58152 5 1.25C5 0.918479 5.1317 0.600537 5.36612 0.366117C5.60054 0.131696 5.91848 0 6.25 0C6.58152 0 6.89946 0.131696 7.13388 0.366117C7.3683 0.600537 7.5 0.918479 7.5 1.25ZM7.5 6C7.5 6.33152 7.3683 6.64946 7.13388 6.88388C6.89946 7.1183 6.58152 7.25 6.25 7.25C5.91848 7.25 5.60054 7.1183 5.36612 6.88388C5.1317 6.64946 5 6.33152 5 6C5 5.66848 5.1317 5.35054 5.36612 5.11612C5.60054 4.8817 5.91848 4.75 6.25 4.75C6.58152 4.75 6.89946 4.8817 7.13388 5.11612C7.3683 5.35054 7.5 5.66848 7.5 6ZM1.75 12C2.08152 12 2.39946 11.8683 2.63388 11.6339C2.8683 11.3995 3 11.0815 3 10.75C3 10.4185 2.8683 10.1005 2.63388 9.86612C2.39946 9.6317 2.08152 9.5 1.75 9.5C1.41848 9.5 1.10054 9.6317 0.866117 9.86612C0.631696 10.1005 0.5 10.4185 0.5 10.75C0.5 11.0815 0.631696 11.3995 0.866117 11.6339C1.10054 11.8683 1.41848 12 1.75 12ZM6.25 12C6.58152 12 6.89946 11.8683 7.13388 11.6339C7.3683 11.3995 7.5 11.0815 7.5 10.75C7.5 10.4185 7.3683 10.1005 7.13388 9.86612C6.89946 9.6317 6.58152 9.5 6.25 9.5C5.91848 9.5 5.60054 9.6317 5.36612 9.86612C5.1317 10.1005 5 10.4185 5 10.75C5 11.0815 5.1317 11.3995 5.36612 11.6339C5.60054 11.8683 5.91848 12 6.25 12ZM1.75 7.25C2.08152 7.25 2.39946 7.1183 2.63388 6.88388C2.8683 6.64946 3 6.33152 3 6C3 5.66848 2.8683 5.35054 2.63388 5.11612C2.39946 4.8817 2.08152 4.75 1.75 4.75C1.41848 4.75 1.10054 4.8817 0.866117 5.11612C0.631696 5.35054 0.5 5.66848 0.5 6C0.5 6.33152 0.631696 6.64946 0.866117 6.88388C1.10054 7.1183 1.41848 7.25 1.75 7.25ZM1.75 2.5C2.08152 2.5 2.39946 2.3683 2.63388 2.13388C2.8683 1.89946 3 1.58152 3 1.25C3 0.918479 2.8683 0.600537 2.63388 0.366117C2.39946 0.131696 2.08152 0 1.75 0C1.41848 0 1.10054 0.131696 0.866117 0.366117C0.631696 0.600537 0.5 0.918479 0.5 1.25C0.5 1.58152 0.631696 1.89946 0.866117 2.13388C1.10054 2.3683 1.41848 2.5 1.75 2.5Z" fill="#64748B"/>
</svg>
