<svg width="19" height="21" viewBox="0 0 19 21" fill="none" xmlns="http://www.w3.org/2000/svg">
<path d="M2.11041 16.7997C1.64406 16.7997 1.21177 16.8009 0.780076 16.7997C0.317249 16.798 -0.00344124 16.5064 8.28233e-05 16.0933C0.00360689 15.6872 0.319011 15.4026 0.770091 15.4003C1.19533 15.398 1.61998 15.398 2.04522 15.3968C2.05872 15.3968 2.07165 15.388 2.09749 15.3793V11.2003C2.02701 11.2003 1.95065 11.2003 1.8743 11.2003C1.48606 11.2003 1.09724 11.205 0.709007 11.1985C0.30139 11.1915 -0.00579062 10.8778 8.28233e-05 10.4886C0.00595627 10.1065 0.309026 9.8073 0.709007 9.80204C1.1689 9.79562 1.62879 9.80088 2.09925 9.80088V5.60088C1.92775 5.60088 1.75566 5.60088 1.58298 5.60088C1.32631 5.60088 1.06964 5.60088 0.813555 5.60088C0.324884 5.59971 0.00301954 5.3245 8.28233e-05 4.90555C-0.0028539 4.48368 0.317249 4.20204 0.802395 4.20088C1.22705 4.20029 1.6517 4.20088 2.11041 4.20088C2.11041 4.11615 2.11041 4.03961 2.11041 3.96306C2.11041 3.35772 2.10747 2.75296 2.111 2.14762C2.11805 0.918239 3.03019 0.003798 4.26538 0.00262938C8.45784 -0.000876461 12.6503 -0.000876461 16.8428 0.00262938C18.0785 0.003798 18.9971 0.915902 18.9983 2.14587C19.0013 7.71548 19.0013 13.2851 18.9983 18.8547C18.9977 20.0847 18.0791 20.9968 16.8428 20.998C12.6503 21.0015 8.45784 21.0015 4.26538 20.998C3.03078 20.9968 2.11746 20.0818 2.11159 18.8524C2.10806 18.1763 2.111 17.4997 2.111 16.7997H2.11041ZM3.51769 16.7997C3.51769 17.4991 3.51534 18.1752 3.51828 18.8512C3.52004 19.3105 3.81195 19.5985 4.2783 19.5985C8.46371 19.5997 12.6491 19.5997 16.8345 19.5985C17.3003 19.5985 17.5905 19.3105 17.5905 18.8471C17.5916 13.2845 17.5916 7.72191 17.5905 2.15872C17.5905 1.6866 17.298 1.40146 16.8181 1.40146C12.6403 1.40088 8.46195 1.40088 4.28417 1.40146C3.80255 1.40146 3.51945 1.68427 3.51769 2.1634C3.51534 2.78335 3.51651 3.40271 3.51769 4.02266C3.51769 4.07817 3.52709 4.13368 3.53296 4.20088C4.00753 4.20088 4.4686 4.1927 4.92908 4.20321C5.46943 4.2149 5.79835 4.77583 5.53874 5.2351C5.39719 5.48518 5.17341 5.60263 4.88444 5.60146C4.43277 5.59971 3.98169 5.60146 3.53413 5.60146V9.80146C4.01282 9.80146 4.47447 9.79503 4.93554 9.80321C5.32847 9.81023 5.63037 10.1275 5.62684 10.5079C5.62332 10.8801 5.32671 11.1869 4.94317 11.198C4.59899 11.2079 4.25422 11.2003 3.90945 11.2009C3.78082 11.2009 3.65278 11.2009 3.52826 11.2009V15.4003C3.97817 15.4003 4.41633 15.3991 4.85448 15.4003C5.30498 15.402 5.62214 15.6878 5.62684 16.0921C5.63095 16.5058 5.31085 16.798 4.84802 16.7997C4.41574 16.8015 3.98345 16.7997 3.51651 16.7997H3.51769Z" fill="#64748B"/>
<path d="M8.49605 10.3262C7.22445 8.84325 7.73837 7.07923 8.73745 6.25126C9.83637 5.34033 11.4574 5.3859 12.4888 6.35644C13.482 7.29075 13.7728 8.98816 12.6063 10.3204C12.6721 10.3636 12.7355 10.4051 12.7983 10.4472C14.0564 11.2734 14.7154 12.4373 14.773 13.9337C14.7912 14.4047 14.4905 14.6998 14.013 14.6998C11.7053 14.7009 9.39704 14.7015 7.08936 14.6998C6.61655 14.6998 6.317 14.4 6.3358 13.9273C6.39512 12.4303 7.05588 11.2681 8.31691 10.4454C8.37623 10.4069 8.43555 10.3665 8.49605 10.3268V10.3262ZM13.2553 13.2916C13.092 12.1896 11.8574 11.219 10.6023 11.2015C9.306 11.1834 8.062 12.1253 7.85056 13.2916H13.2553ZM11.962 8.41729C11.9684 7.64133 11.3417 7.0056 10.5659 7.00151C9.79525 6.99742 9.15857 7.61387 9.148 8.37347C9.13743 9.1506 9.75766 9.78983 10.533 9.80035C11.3106 9.81145 11.9549 9.18741 11.962 8.41729Z" fill="#64748B"/>
</svg>
