<svg width="22" height="18" viewBox="0 0 22 18" fill="none" xmlns="http://www.w3.org/2000/svg">
<path d="M12.7084 10.625C12.9255 10.625 13.1366 10.6489 13.3329 10.6952L13.3328 10.696C14.264 10.9156 15.0257 11.6155 15.3429 12.5371C15.4464 12.8396 15.505 13.1646 15.505 13.5C15.505 13.8568 15.2268 14.125 14.905 14.125H7.205C6.88324 14.125 6.605 13.8568 6.605 13.5C6.605 13.1616 6.66111 12.8381 6.7657 12.541L6.7657 12.541L6.76662 12.5384C7.07507 11.6461 7.80245 10.9572 8.69612 10.7168L8.69612 10.7168L8.69899 10.716C8.91957 10.6553 9.1564 10.625 9.40844 10.625H12.7084ZM0.5 0.84375C0.5 0.641662 0.654488 0.5 0.825 0.5H21.175C21.3455 0.5 21.5 0.641661 21.5 0.84375C21.5 1.04584 21.3455 1.1875 21.175 1.1875H0.825C0.654488 1.1875 0.5 1.04584 0.5 0.84375ZM0.5 17.1562C0.5 16.9542 0.654488 16.8125 0.825 16.8125H21.175C21.3455 16.8125 21.5 16.9542 21.5 17.1562C21.5 17.3583 21.3455 17.5 21.175 17.5H0.825C0.654488 17.5 0.5 17.3583 0.5 17.1562ZM3.36 5.625C3.36 5.39365 3.40457 5.16481 3.4909 4.95166C3.57722 4.73852 3.70346 4.54558 3.86187 4.38357C4.02026 4.22158 4.20768 4.0937 4.41313 4.00666C4.61856 3.91964 4.83833 3.875 5.06 3.875C5.28167 3.875 5.50144 3.91964 5.70687 4.00666C5.91232 4.0937 6.09974 4.22158 6.25813 4.38357C6.41654 4.54558 6.54278 4.73852 6.6291 4.95166C6.71543 5.16481 6.76 5.39365 6.76 5.625C6.76 6.09271 6.57823 6.53906 6.25813 6.86643C5.93841 7.19342 5.5072 7.375 5.06 7.375C4.6128 7.375 4.18159 7.19342 3.86187 6.86643C3.54177 6.53906 3.36 6.09271 3.36 5.625ZM1.6 11.25C1.6 10.2745 2.37324 9.5 3.3 9.5H6.46441C5.68715 10.0957 5.09111 10.9211 4.76905 11.875H2.2C1.87824 11.875 1.6 11.6068 1.6 11.25ZM19.8 11.875H17.3415C17.0205 10.9205 16.4236 10.0956 15.6468 9.5H18.7C19.6268 9.5 20.4 10.2745 20.4 11.25C20.4 11.6068 20.1218 11.875 19.8 11.875ZM15.9619 4.38357C16.2816 4.05658 16.7128 3.875 17.16 3.875C17.6072 3.875 18.0384 4.05658 18.3581 4.38357C18.6782 4.71094 18.86 5.15729 18.86 5.625C18.86 6.09271 18.6782 6.53906 18.3581 6.86643C18.0384 7.19342 17.6072 7.375 17.16 7.375C16.7128 7.375 16.2816 7.19342 15.9619 6.86643C15.6418 6.53906 15.46 6.09271 15.46 5.625C15.46 5.15729 15.6418 4.71094 15.9619 4.38357ZM11.055 3.875C11.6481 3.875 12.2192 4.11584 12.642 4.54832C13.0653 4.98118 13.305 5.57061 13.305 6.1875C13.305 6.80439 13.0653 7.39382 12.642 7.82668C12.2192 8.25916 11.6481 8.5 11.055 8.5C10.4619 8.5 9.89083 8.25916 9.46796 7.82668C9.04472 7.39382 8.805 6.80439 8.805 6.1875C8.805 5.57061 9.04472 4.98118 9.46796 4.54832C9.89083 4.11584 10.4619 3.875 11.055 3.875Z" stroke="#0071BC"/>
</svg>
