<svg width="18" height="17" viewBox="0 0 18 17" fill="none" xmlns="http://www.w3.org/2000/svg">
<path fill-rule="evenodd" clip-rule="evenodd" d="M15.5455 1.7H2.45455C2.23755 1.7 2.02944 1.78955 1.876 1.94896C1.72256 2.10837 1.63636 2.32457 1.63636 2.55V14.45C1.63636 14.6754 1.72256 14.8916 1.876 15.051C2.02944 15.2104 2.23755 15.3 2.45455 15.3H15.5455C15.7625 15.3 15.9706 15.2104 16.124 15.051C16.2774 14.8916 16.3636 14.6754 16.3636 14.45V2.55C16.3636 2.32457 16.2774 2.10837 16.124 1.94896C15.9706 1.78955 15.7625 1.7 15.5455 1.7ZM2.45455 0C1.80356 0 1.17924 0.26866 0.71892 0.746878C0.258603 1.2251 0 1.8737 0 2.55V14.45C0 15.1263 0.258603 15.7749 0.71892 16.2531C1.17924 16.7313 1.80356 17 2.45455 17H15.5455C16.1964 17 16.8208 16.7313 17.2811 16.2531C17.7414 15.7749 18 15.1263 18 14.45V2.55C18 1.8737 17.7414 1.2251 17.2811 0.746878C16.8208 0.26866 16.1964 0 15.5455 0H2.45455ZM4.09091 4.25H5.72727V5.95H4.09091V4.25ZM8.18182 4.25C7.96482 4.25 7.75672 4.33955 7.60328 4.49896C7.44984 4.65837 7.36364 4.87457 7.36364 5.1C7.36364 5.32543 7.44984 5.54164 7.60328 5.70104C7.75672 5.86045 7.96482 5.95 8.18182 5.95H13.0909C13.3079 5.95 13.516 5.86045 13.6695 5.70104C13.8229 5.54164 13.9091 5.32543 13.9091 5.1C13.9091 4.87457 13.8229 4.65837 13.6695 4.49896C13.516 4.33955 13.3079 4.25 13.0909 4.25H8.18182ZM5.72727 7.65H4.09091V9.35H5.72727V7.65ZM7.36364 8.5C7.36364 8.27457 7.44984 8.05837 7.60328 7.89896C7.75672 7.73955 7.96482 7.65 8.18182 7.65H13.0909C13.3079 7.65 13.516 7.73955 13.6695 7.89896C13.8229 8.05837 13.9091 8.27457 13.9091 8.5C13.9091 8.72543 13.8229 8.94164 13.6695 9.10104C13.516 9.26045 13.3079 9.35 13.0909 9.35H8.18182C7.96482 9.35 7.75672 9.26045 7.60328 9.10104C7.44984 8.94164 7.36364 8.72543 7.36364 8.5ZM5.72727 11.05H4.09091V12.75H5.72727V11.05ZM7.36364 11.9C7.36364 11.6746 7.44984 11.4584 7.60328 11.299C7.75672 11.1396 7.96482 11.05 8.18182 11.05H13.0909C13.3079 11.05 13.516 11.1396 13.6695 11.299C13.8229 11.4584 13.9091 11.6746 13.9091 11.9C13.9091 12.1254 13.8229 12.3416 13.6695 12.501C13.516 12.6604 13.3079 12.75 13.0909 12.75H8.18182C7.96482 12.75 7.75672 12.6604 7.60328 12.501C7.44984 12.3416 7.36364 12.1254 7.36364 11.9Z" fill="#0071BC"/>
</svg>
