<svg xmlns="http://www.w3.org/2000/svg">
    <defs>
        <svg id="dashboard" width="20" height="20" viewBox="0 0 20 20" fill="none" xmlns="http://www.w3.org/2000/svg">
            <path d="M7 1H2C1.44772 1 1 1.44772 1 2V9C1 9.55229 1.44772 10 2 10H7C7.55228 10 8 9.55229 8 9V2C8 1.44772 7.55228 1 7 1Z" stroke="#64748B" stroke-width="1.5" stroke-linecap="round" stroke-linejoin="round"/>
            <path d="M18 1H13C12.4477 1 12 1.44772 12 2V5C12 5.55228 12.4477 6 13 6H18C18.5523 6 19 5.55228 19 5V2C19 1.44772 18.5523 1 18 1Z" stroke="#64748B" stroke-width="1.5" stroke-linecap="round" stroke-linejoin="round"/>
            <path d="M18 10H13C12.4477 10 12 10.4477 12 11V18C12 18.5523 12.4477 19 13 19H18C18.5523 19 19 18.5523 19 18V11C19 10.4477 18.5523 10 18 10Z" stroke="#64748B" stroke-width="1.5" stroke-linecap="round" stroke-linejoin="round"/>
            <path d="M7 14H2C1.44772 14 1 14.4477 1 15V18C1 18.5523 1.44772 19 2 19H7C7.55228 19 8 18.5523 8 18V15C8 14.4477 7.55228 14 7 14Z" stroke="#64748B" stroke-width="1.5" stroke-linecap="round" stroke-linejoin="round"/>
        </svg>
        <svg id="stocks" width="20" height="19" viewBox="0 0 20 19" fill="none" xmlns="http://www.w3.org/2000/svg">
            <path d="M1 1V17.5H19" stroke="#64748B" stroke-width="1.5" stroke-linecap="round"/>
            <path d="M13.4313 9.11951C14.5944 7.70595 15.7438 6.30943 16.9331 4.86406C16.7173 4.86406 16.5463 4.86974 16.3759 4.86293C15.7302 4.83794 15.3083 4.2632 15.4985 3.67256C15.6144 3.31193 15.9438 3.05011 16.3265 3.04671C17.1852 3.03875 18.0445 3.03819 18.9032 3.04671C19.3451 3.05125 19.7108 3.36758 19.7625 3.81283C19.8346 4.43301 19.8727 5.05659 19.9249 5.67903C19.9493 5.96924 19.9681 6.25945 19.9953 6.54909C20.0476 7.1085 19.6637 7.56738 19.1185 7.59293C18.6005 7.61736 18.1836 7.19936 18.1802 6.65132C18.1797 6.54 18.1802 6.42926 18.1802 6.25775C18.0496 6.41109 17.9553 6.52013 17.8622 6.63087C16.8678 7.8167 15.8739 9.00252 14.8795 10.1883C14.1565 11.0505 13.1013 11.1623 12.2187 10.4644C11.2834 9.72492 10.3526 8.9798 9.41945 8.23753C9.35925 8.18925 9.29792 8.14212 9.21898 8.08078C8.84926 8.52546 8.48749 8.95936 8.12572 9.39382C7.18127 10.5285 6.23681 11.6632 5.29235 12.798C5.05212 13.0865 4.75453 13.237 4.37345 13.1552C4.01679 13.0791 3.77883 12.8599 3.67945 12.5089C3.58744 12.1846 3.6715 11.8967 3.88844 11.6377C4.94081 10.3803 5.98976 9.12008 7.04042 7.86099C7.28576 7.56681 7.53111 7.27206 7.77758 6.97844C8.46761 6.15609 9.52963 6.03455 10.3747 6.69675C11.347 7.45834 12.309 8.23242 13.2757 9.00082C13.3194 9.03546 13.3648 9.06897 13.4313 9.11951Z" fill="#64748B"/>
        </svg>
        <svg id="sales-managment" width="23" height="23" viewBox="0 0 23 23" fill="none" xmlns="http://www.w3.org/2000/svg">
            <mask id="path-1-outside-1_524_2584" maskUnits="userSpaceOnUse" x="0" y="0" width="23" height="23" fill="black">
                <rect fill="white" width="23" height="23"/>
                <path d="M12.6581 1C12.7195 1 12.8394 1.25032 12.8975 1.38945C13.0597 1.77999 13.2092 2.17601 13.3539 2.57312C13.3977 2.69308 13.4574 2.75826 13.5889 2.78839C14.5284 3.0042 15.4033 3.37776 16.2267 3.87785C16.2924 3.91784 16.4102 3.92222 16.482 3.89209C16.9164 3.71024 17.3464 3.51908 17.7732 3.3197C17.9693 3.22823 18.1216 3.25726 18.2712 3.40898C18.7127 3.85704 19.1576 4.30126 19.6046 4.74329C19.7498 4.8868 19.7805 5.03524 19.6934 5.22366C19.4961 5.6509 19.3121 6.08472 19.1165 6.51305C19.0705 6.61439 19.0628 6.69162 19.1269 6.79405C19.6391 7.61019 20.0056 8.48877 20.2209 9.4287C20.2494 9.55304 20.314 9.60836 20.4247 9.64999C20.8591 9.81212 21.2903 9.98466 21.7247 10.1462C21.9247 10.2202 22.0129 10.3495 22.0107 10.5647C22.0041 11.1864 22.0036 11.8087 22.0107 12.4303C22.0134 12.656 21.9181 12.7869 21.7083 12.8576C21.5215 12.9206 21.3401 13 21.155 13.0723C22.7946 15.8466 21.8228 18.7639 20.2894 20.2938C18.7807 21.7995 15.8651 22.7909 13.0821 21.145C13.0098 21.3301 12.9304 21.5114 12.8674 21.6982C12.7967 21.908 12.6663 22.0033 12.4406 22.0005C11.8188 21.9934 11.1965 21.994 10.5747 22.0005C10.3594 22.0027 10.2307 21.9151 10.1562 21.7152C9.99511 21.2803 9.82254 20.8492 9.66038 20.4148C9.61875 20.3036 9.56287 20.239 9.43906 20.2105C8.50008 19.9947 7.62081 19.6288 6.80454 19.1167C6.7021 19.0526 6.62485 19.0602 6.5235 19.1063C6.0951 19.3018 5.66177 19.4864 5.23446 19.6836C5.04655 19.7701 4.89754 19.7406 4.75401 19.5949C4.31246 19.1473 3.86817 18.702 3.42004 18.2611C3.26775 18.1116 3.23816 17.9598 3.32965 17.7637C3.52303 17.3496 3.69779 16.9268 3.89063 16.5121C3.94815 16.3889 3.94979 16.2963 3.87529 16.1764C3.37567 15.3772 3.01629 14.5178 2.80538 13.5981C2.77525 13.4656 2.71718 13.39 2.5835 13.3423C2.18523 13.2005 1.7897 13.0493 1.39909 12.8872C1.25995 12.8297 1.03131 12.6985 1.00959 12.6478C0.987865 12.5971 1.00989 10.6441 1.00959 10.3511C1.00952 10.2895 1.2468 10.1731 1.37937 10.1183C1.78258 9.9518 2.19181 9.79898 2.60158 9.64944C2.71772 9.60727 2.77196 9.54044 2.7988 9.42213C3.0141 8.48275 3.38662 7.60854 3.88679 6.78528C3.92679 6.71955 3.93226 6.60179 3.90213 6.53003C3.7208 6.09567 3.53016 5.66514 3.33129 5.239C3.24035 5.04455 3.26391 4.89228 3.4173 4.74165C3.86543 4.30126 4.30972 3.85649 4.75072 3.40844C4.90138 3.25507 5.05367 3.23206 5.2487 3.32244C5.67491 3.52127 6.10551 3.71134 6.53994 3.89264C6.61225 3.92277 6.73004 3.91948 6.79523 3.8795C7.61752 3.37831 8.49241 3.00639 9.43139 2.79167C9.54972 2.76484 9.61601 2.70896 9.65874 2.59339C9.80611 2.1897 9.95731 1.78766 10.1217 1.39054C10.1803 1.25032 10.2949 0.999865 10.3616 1C10.5146 1.00031 12.5146 1 12.6581 1ZM11.5126 21.3416H11.8199C12.3042 21.3416 12.2987 21.3394 12.4751 20.8979C12.525 20.7725 12.4998 20.709 12.4012 20.6263C11.4365 19.8145 10.7845 18.8001 10.4882 17.5737C10.4279 17.3255 10.326 17.2286 10.0822 17.1672C6.95793 16.3796 5.08052 13.2711 5.81735 10.1271C6.52077 7.12324 9.55849 5.13383 12.5825 5.75662C15.0434 6.26328 16.5811 7.78766 17.2166 10.218C17.2462 10.3314 17.2791 10.4048 17.4138 10.4338C18.6108 10.6934 19.621 11.285 20.4554 12.1795C20.7786 12.5262 20.7797 12.5317 21.218 12.3356C21.2782 12.3087 21.3445 12.2145 21.3462 12.1499C21.3577 11.7199 21.3473 11.2888 21.3549 10.8583C21.3571 10.7422 21.3177 10.6896 21.2119 10.6507C20.7896 10.4946 20.3721 10.3259 19.9492 10.1709C19.7706 10.1057 19.6703 9.99233 19.6331 9.80665C19.4277 8.78401 19.0338 7.8375 18.4602 6.96768C18.3457 6.79405 18.3369 6.63794 18.4251 6.45116C18.6147 6.05021 18.7851 5.6405 18.9702 5.23735C19.0173 5.13547 19.0086 5.07084 18.9247 4.98977C18.6147 4.69125 18.3178 4.37904 18.0055 4.08271C17.9589 4.03834 17.8444 4.01753 17.7847 4.04218C17.3815 4.20924 16.9794 4.38123 16.5872 4.57239C16.3691 4.67866 16.1949 4.65182 15.9977 4.522C15.1447 3.96056 14.2145 3.57933 13.2131 3.37831C13.018 3.33942 12.9019 3.23644 12.834 3.05131C12.6822 2.63502 12.5151 2.22366 12.3634 1.80683C12.3217 1.69235 12.2648 1.65127 12.1415 1.65346C11.718 1.66168 11.294 1.66113 10.8705 1.65346C10.7555 1.65127 10.7013 1.68906 10.6618 1.79533C10.5062 2.21764 10.3375 2.63557 10.1825 3.05788C10.1173 3.2359 10.005 3.33723 9.81871 3.37502C8.79043 3.58371 7.83775 3.97919 6.96286 4.5587C6.80454 4.66332 6.65498 4.67154 6.48187 4.59102C6.07374 4.40095 5.65903 4.22458 5.2498 4.0367C5.14845 3.99014 5.08271 3.99726 5.00163 4.08161C4.70799 4.38671 4.40723 4.68578 4.10319 4.98046C4.01663 5.06427 3.998 5.13164 4.05114 5.24502C4.23576 5.6405 4.40011 6.04583 4.58911 6.43911C4.68663 6.64232 4.66581 6.80664 4.54419 6.99178C3.97883 7.85065 3.59316 8.7862 3.38936 9.79405C3.34992 9.9885 3.24857 10.1057 3.06286 10.1736C2.64651 10.3254 2.23508 10.4924 1.81873 10.6441C1.70478 10.6858 1.66205 10.7416 1.66479 10.866C1.67301 11.2828 1.67356 11.6997 1.66479 12.1165C1.66205 12.2469 1.70314 12.3098 1.82531 12.3542C2.24221 12.5059 2.65308 12.673 3.06943 12.8253C3.24748 12.8905 3.34937 13.0022 3.38662 13.1884C3.5937 14.2176 3.99088 15.1696 4.56939 16.0449C4.67457 16.2038 4.68389 16.3527 4.60336 16.5253C4.41326 16.9334 4.23795 17.3485 4.05005 17.7577C4.00403 17.8585 4.00896 17.9242 4.09387 18.0058C4.39902 18.2994 4.69813 18.5996 4.99287 18.9041C5.07668 18.9907 5.14407 19.0093 5.25692 18.9562C5.64588 18.7738 6.04525 18.6122 6.43202 18.4254C6.63964 18.3252 6.80947 18.3345 7.00395 18.4627C7.86186 19.029 8.79865 19.413 9.80611 19.6179C10.0006 19.6573 10.1178 19.7586 10.1858 19.9443C10.3402 20.3672 10.5013 20.7878 10.6728 21.2041C10.6974 21.2644 10.7911 21.329 10.8574 21.3339C11.0749 21.3504 11.2946 21.34 11.5131 21.34L11.5126 21.3416ZM16.1549 10.9487C13.2903 10.9487 10.9702 13.264 10.9593 16.1331C10.9483 18.9978 13.2854 21.3411 16.1538 21.3416C19.0212 21.3416 21.3566 19.0027 21.3522 16.1342C21.3478 13.2744 19.0168 10.9487 16.1549 10.9487ZM16.5444 10.3002C16.1971 8.44495 14.2644 6.22439 11.3581 6.30655C8.56417 6.38543 6.34436 8.64105 6.31478 11.434C6.28355 14.3688 8.55541 16.2169 10.3112 16.5324C10.229 14.7818 10.7763 13.2591 12.0155 12.0168C13.2596 10.7696 14.787 10.2191 16.5444 10.3002Z"/>
            </mask>
            <path d="M12.6581 1C12.7195 1 12.8394 1.25032 12.8975 1.38945C13.0597 1.77999 13.2092 2.17601 13.3539 2.57312C13.3977 2.69308 13.4574 2.75826 13.5889 2.78839C14.5284 3.0042 15.4033 3.37776 16.2267 3.87785C16.2924 3.91784 16.4102 3.92222 16.482 3.89209C16.9164 3.71024 17.3464 3.51908 17.7732 3.3197C17.9693 3.22823 18.1216 3.25726 18.2712 3.40898C18.7127 3.85704 19.1576 4.30126 19.6046 4.74329C19.7498 4.8868 19.7805 5.03524 19.6934 5.22366C19.4961 5.6509 19.3121 6.08472 19.1165 6.51305C19.0705 6.61439 19.0628 6.69162 19.1269 6.79405C19.6391 7.61019 20.0056 8.48877 20.2209 9.4287C20.2494 9.55304 20.314 9.60836 20.4247 9.64999C20.8591 9.81212 21.2903 9.98466 21.7247 10.1462C21.9247 10.2202 22.0129 10.3495 22.0107 10.5647C22.0041 11.1864 22.0036 11.8087 22.0107 12.4303C22.0134 12.656 21.9181 12.7869 21.7083 12.8576C21.5215 12.9206 21.3401 13 21.155 13.0723C22.7946 15.8466 21.8228 18.7639 20.2894 20.2938C18.7807 21.7995 15.8651 22.7909 13.0821 21.145C13.0098 21.3301 12.9304 21.5114 12.8674 21.6982C12.7967 21.908 12.6663 22.0033 12.4406 22.0005C11.8188 21.9934 11.1965 21.994 10.5747 22.0005C10.3594 22.0027 10.2307 21.9151 10.1562 21.7152C9.99511 21.2803 9.82254 20.8492 9.66038 20.4148C9.61875 20.3036 9.56287 20.239 9.43906 20.2105C8.50008 19.9947 7.62081 19.6288 6.80454 19.1167C6.7021 19.0526 6.62485 19.0602 6.5235 19.1063C6.0951 19.3018 5.66177 19.4864 5.23446 19.6836C5.04655 19.7701 4.89754 19.7406 4.75401 19.5949C4.31246 19.1473 3.86817 18.702 3.42004 18.2611C3.26775 18.1116 3.23816 17.9598 3.32965 17.7637C3.52303 17.3496 3.69779 16.9268 3.89063 16.5121C3.94815 16.3889 3.94979 16.2963 3.87529 16.1764C3.37567 15.3772 3.01629 14.5178 2.80538 13.5981C2.77525 13.4656 2.71718 13.39 2.5835 13.3423C2.18523 13.2005 1.7897 13.0493 1.39909 12.8872C1.25995 12.8297 1.03131 12.6985 1.00959 12.6478C0.987865 12.5971 1.00989 10.6441 1.00959 10.3511C1.00952 10.2895 1.2468 10.1731 1.37937 10.1183C1.78258 9.9518 2.19181 9.79898 2.60158 9.64944C2.71772 9.60727 2.77196 9.54044 2.7988 9.42213C3.0141 8.48275 3.38662 7.60854 3.88679 6.78528C3.92679 6.71955 3.93226 6.60179 3.90213 6.53003C3.7208 6.09567 3.53016 5.66514 3.33129 5.239C3.24035 5.04455 3.26391 4.89228 3.4173 4.74165C3.86543 4.30126 4.30972 3.85649 4.75072 3.40844C4.90138 3.25507 5.05367 3.23206 5.2487 3.32244C5.67491 3.52127 6.10551 3.71134 6.53994 3.89264C6.61225 3.92277 6.73004 3.91948 6.79523 3.8795C7.61752 3.37831 8.49241 3.00639 9.43139 2.79167C9.54972 2.76484 9.61601 2.70896 9.65874 2.59339C9.80611 2.1897 9.95731 1.78766 10.1217 1.39054C10.1803 1.25032 10.2949 0.999865 10.3616 1C10.5146 1.00031 12.5146 1 12.6581 1ZM11.5126 21.3416H11.8199C12.3042 21.3416 12.2987 21.3394 12.4751 20.8979C12.525 20.7725 12.4998 20.709 12.4012 20.6263C11.4365 19.8145 10.7845 18.8001 10.4882 17.5737C10.4279 17.3255 10.326 17.2286 10.0822 17.1672C6.95793 16.3796 5.08052 13.2711 5.81735 10.1271C6.52077 7.12324 9.55849 5.13383 12.5825 5.75662C15.0434 6.26328 16.5811 7.78766 17.2166 10.218C17.2462 10.3314 17.2791 10.4048 17.4138 10.4338C18.6108 10.6934 19.621 11.285 20.4554 12.1795C20.7786 12.5262 20.7797 12.5317 21.218 12.3356C21.2782 12.3087 21.3445 12.2145 21.3462 12.1499C21.3577 11.7199 21.3473 11.2888 21.3549 10.8583C21.3571 10.7422 21.3177 10.6896 21.2119 10.6507C20.7896 10.4946 20.3721 10.3259 19.9492 10.1709C19.7706 10.1057 19.6703 9.99233 19.6331 9.80665C19.4277 8.78401 19.0338 7.8375 18.4602 6.96768C18.3457 6.79405 18.3369 6.63794 18.4251 6.45116C18.6147 6.05021 18.7851 5.6405 18.9702 5.23735C19.0173 5.13547 19.0086 5.07084 18.9247 4.98977C18.6147 4.69125 18.3178 4.37904 18.0055 4.08271C17.9589 4.03834 17.8444 4.01753 17.7847 4.04218C17.3815 4.20924 16.9794 4.38123 16.5872 4.57239C16.3691 4.67866 16.1949 4.65182 15.9977 4.522C15.1447 3.96056 14.2145 3.57933 13.2131 3.37831C13.018 3.33942 12.9019 3.23644 12.834 3.05131C12.6822 2.63502 12.5151 2.22366 12.3634 1.80683C12.3217 1.69235 12.2648 1.65127 12.1415 1.65346C11.718 1.66168 11.294 1.66113 10.8705 1.65346C10.7555 1.65127 10.7013 1.68906 10.6618 1.79533C10.5062 2.21764 10.3375 2.63557 10.1825 3.05788C10.1173 3.2359 10.005 3.33723 9.81871 3.37502C8.79043 3.58371 7.83775 3.97919 6.96286 4.5587C6.80454 4.66332 6.65498 4.67154 6.48187 4.59102C6.07374 4.40095 5.65903 4.22458 5.2498 4.0367C5.14845 3.99014 5.08271 3.99726 5.00163 4.08161C4.70799 4.38671 4.40723 4.68578 4.10319 4.98046C4.01663 5.06427 3.998 5.13164 4.05114 5.24502C4.23576 5.6405 4.40011 6.04583 4.58911 6.43911C4.68663 6.64232 4.66581 6.80664 4.54419 6.99178C3.97883 7.85065 3.59316 8.7862 3.38936 9.79405C3.34992 9.9885 3.24857 10.1057 3.06286 10.1736C2.64651 10.3254 2.23508 10.4924 1.81873 10.6441C1.70478 10.6858 1.66205 10.7416 1.66479 10.866C1.67301 11.2828 1.67356 11.6997 1.66479 12.1165C1.66205 12.2469 1.70314 12.3098 1.82531 12.3542C2.24221 12.5059 2.65308 12.673 3.06943 12.8253C3.24748 12.8905 3.34937 13.0022 3.38662 13.1884C3.5937 14.2176 3.99088 15.1696 4.56939 16.0449C4.67457 16.2038 4.68389 16.3527 4.60336 16.5253C4.41326 16.9334 4.23795 17.3485 4.05005 17.7577C4.00403 17.8585 4.00896 17.9242 4.09387 18.0058C4.39902 18.2994 4.69813 18.5996 4.99287 18.9041C5.07668 18.9907 5.14407 19.0093 5.25692 18.9562C5.64588 18.7738 6.04525 18.6122 6.43202 18.4254C6.63964 18.3252 6.80947 18.3345 7.00395 18.4627C7.86186 19.029 8.79865 19.413 9.80611 19.6179C10.0006 19.6573 10.1178 19.7586 10.1858 19.9443C10.3402 20.3672 10.5013 20.7878 10.6728 21.2041C10.6974 21.2644 10.7911 21.329 10.8574 21.3339C11.0749 21.3504 11.2946 21.34 11.5131 21.34L11.5126 21.3416ZM16.1549 10.9487C13.2903 10.9487 10.9702 13.264 10.9593 16.1331C10.9483 18.9978 13.2854 21.3411 16.1538 21.3416C19.0212 21.3416 21.3566 19.0027 21.3522 16.1342C21.3478 13.2744 19.0168 10.9487 16.1549 10.9487ZM16.5444 10.3002C16.1971 8.44495 14.2644 6.22439 11.3581 6.30655C8.56417 6.38543 6.34436 8.64105 6.31478 11.434C6.28355 14.3688 8.55541 16.2169 10.3112 16.5324C10.229 14.7818 10.7763 13.2591 12.0155 12.0168C13.2596 10.7696 14.787 10.2191 16.5444 10.3002Z" fill="#64748B"/>
            <path d="M12.6581 1C12.7195 1 12.8394 1.25032 12.8975 1.38945C13.0597 1.77999 13.2092 2.17601 13.3539 2.57312C13.3977 2.69308 13.4574 2.75826 13.5889 2.78839C14.5284 3.0042 15.4033 3.37776 16.2267 3.87785C16.2924 3.91784 16.4102 3.92222 16.482 3.89209C16.9164 3.71024 17.3464 3.51908 17.7732 3.3197C17.9693 3.22823 18.1216 3.25726 18.2712 3.40898C18.7127 3.85704 19.1576 4.30126 19.6046 4.74329C19.7498 4.8868 19.7805 5.03524 19.6934 5.22366C19.4961 5.6509 19.3121 6.08472 19.1165 6.51305C19.0705 6.61439 19.0628 6.69162 19.1269 6.79405C19.6391 7.61019 20.0056 8.48877 20.2209 9.4287C20.2494 9.55304 20.314 9.60836 20.4247 9.64999C20.8591 9.81212 21.2903 9.98466 21.7247 10.1462C21.9247 10.2202 22.0129 10.3495 22.0107 10.5647C22.0041 11.1864 22.0036 11.8087 22.0107 12.4303C22.0134 12.656 21.9181 12.7869 21.7083 12.8576C21.5215 12.9206 21.3401 13 21.155 13.0723C22.7946 15.8466 21.8228 18.7639 20.2894 20.2938C18.7807 21.7995 15.8651 22.7909 13.0821 21.145C13.0098 21.3301 12.9304 21.5114 12.8674 21.6982C12.7967 21.908 12.6663 22.0033 12.4406 22.0005C11.8188 21.9934 11.1965 21.994 10.5747 22.0005C10.3594 22.0027 10.2307 21.9151 10.1562 21.7152C9.99511 21.2803 9.82254 20.8492 9.66038 20.4148C9.61875 20.3036 9.56287 20.239 9.43906 20.2105C8.50008 19.9947 7.62081 19.6288 6.80454 19.1167C6.7021 19.0526 6.62485 19.0602 6.5235 19.1063C6.0951 19.3018 5.66177 19.4864 5.23446 19.6836C5.04655 19.7701 4.89754 19.7406 4.75401 19.5949C4.31246 19.1473 3.86817 18.702 3.42004 18.2611C3.26775 18.1116 3.23816 17.9598 3.32965 17.7637C3.52303 17.3496 3.69779 16.9268 3.89063 16.5121C3.94815 16.3889 3.94979 16.2963 3.87529 16.1764C3.37567 15.3772 3.01629 14.5178 2.80538 13.5981C2.77525 13.4656 2.71718 13.39 2.5835 13.3423C2.18523 13.2005 1.7897 13.0493 1.39909 12.8872C1.25995 12.8297 1.03131 12.6985 1.00959 12.6478C0.987865 12.5971 1.00989 10.6441 1.00959 10.3511C1.00952 10.2895 1.2468 10.1731 1.37937 10.1183C1.78258 9.9518 2.19181 9.79898 2.60158 9.64944C2.71772 9.60727 2.77196 9.54044 2.7988 9.42213C3.0141 8.48275 3.38662 7.60854 3.88679 6.78528C3.92679 6.71955 3.93226 6.60179 3.90213 6.53003C3.7208 6.09567 3.53016 5.66514 3.33129 5.239C3.24035 5.04455 3.26391 4.89228 3.4173 4.74165C3.86543 4.30126 4.30972 3.85649 4.75072 3.40844C4.90138 3.25507 5.05367 3.23206 5.2487 3.32244C5.67491 3.52127 6.10551 3.71134 6.53994 3.89264C6.61225 3.92277 6.73004 3.91948 6.79523 3.8795C7.61752 3.37831 8.49241 3.00639 9.43139 2.79167C9.54972 2.76484 9.61601 2.70896 9.65874 2.59339C9.80611 2.1897 9.95731 1.78766 10.1217 1.39054C10.1803 1.25032 10.2949 0.999865 10.3616 1C10.5146 1.00031 12.5146 1 12.6581 1ZM11.5126 21.3416H11.8199C12.3042 21.3416 12.2987 21.3394 12.4751 20.8979C12.525 20.7725 12.4998 20.709 12.4012 20.6263C11.4365 19.8145 10.7845 18.8001 10.4882 17.5737C10.4279 17.3255 10.326 17.2286 10.0822 17.1672C6.95793 16.3796 5.08052 13.2711 5.81735 10.1271C6.52077 7.12324 9.55849 5.13383 12.5825 5.75662C15.0434 6.26328 16.5811 7.78766 17.2166 10.218C17.2462 10.3314 17.2791 10.4048 17.4138 10.4338C18.6108 10.6934 19.621 11.285 20.4554 12.1795C20.7786 12.5262 20.7797 12.5317 21.218 12.3356C21.2782 12.3087 21.3445 12.2145 21.3462 12.1499C21.3577 11.7199 21.3473 11.2888 21.3549 10.8583C21.3571 10.7422 21.3177 10.6896 21.2119 10.6507C20.7896 10.4946 20.3721 10.3259 19.9492 10.1709C19.7706 10.1057 19.6703 9.99233 19.6331 9.80665C19.4277 8.78401 19.0338 7.8375 18.4602 6.96768C18.3457 6.79405 18.3369 6.63794 18.4251 6.45116C18.6147 6.05021 18.7851 5.6405 18.9702 5.23735C19.0173 5.13547 19.0086 5.07084 18.9247 4.98977C18.6147 4.69125 18.3178 4.37904 18.0055 4.08271C17.9589 4.03834 17.8444 4.01753 17.7847 4.04218C17.3815 4.20924 16.9794 4.38123 16.5872 4.57239C16.3691 4.67866 16.1949 4.65182 15.9977 4.522C15.1447 3.96056 14.2145 3.57933 13.2131 3.37831C13.018 3.33942 12.9019 3.23644 12.834 3.05131C12.6822 2.63502 12.5151 2.22366 12.3634 1.80683C12.3217 1.69235 12.2648 1.65127 12.1415 1.65346C11.718 1.66168 11.294 1.66113 10.8705 1.65346C10.7555 1.65127 10.7013 1.68906 10.6618 1.79533C10.5062 2.21764 10.3375 2.63557 10.1825 3.05788C10.1173 3.2359 10.005 3.33723 9.81871 3.37502C8.79043 3.58371 7.83775 3.97919 6.96286 4.5587C6.80454 4.66332 6.65498 4.67154 6.48187 4.59102C6.07374 4.40095 5.65903 4.22458 5.2498 4.0367C5.14845 3.99014 5.08271 3.99726 5.00163 4.08161C4.70799 4.38671 4.40723 4.68578 4.10319 4.98046C4.01663 5.06427 3.998 5.13164 4.05114 5.24502C4.23576 5.6405 4.40011 6.04583 4.58911 6.43911C4.68663 6.64232 4.66581 6.80664 4.54419 6.99178C3.97883 7.85065 3.59316 8.7862 3.38936 9.79405C3.34992 9.9885 3.24857 10.1057 3.06286 10.1736C2.64651 10.3254 2.23508 10.4924 1.81873 10.6441C1.70478 10.6858 1.66205 10.7416 1.66479 10.866C1.67301 11.2828 1.67356 11.6997 1.66479 12.1165C1.66205 12.2469 1.70314 12.3098 1.82531 12.3542C2.24221 12.5059 2.65308 12.673 3.06943 12.8253C3.24748 12.8905 3.34937 13.0022 3.38662 13.1884C3.5937 14.2176 3.99088 15.1696 4.56939 16.0449C4.67457 16.2038 4.68389 16.3527 4.60336 16.5253C4.41326 16.9334 4.23795 17.3485 4.05005 17.7577C4.00403 17.8585 4.00896 17.9242 4.09387 18.0058C4.39902 18.2994 4.69813 18.5996 4.99287 18.9041C5.07668 18.9907 5.14407 19.0093 5.25692 18.9562C5.64588 18.7738 6.04525 18.6122 6.43202 18.4254C6.63964 18.3252 6.80947 18.3345 7.00395 18.4627C7.86186 19.029 8.79865 19.413 9.80611 19.6179C10.0006 19.6573 10.1178 19.7586 10.1858 19.9443C10.3402 20.3672 10.5013 20.7878 10.6728 21.2041C10.6974 21.2644 10.7911 21.329 10.8574 21.3339C11.0749 21.3504 11.2946 21.34 11.5131 21.34L11.5126 21.3416ZM16.1549 10.9487C13.2903 10.9487 10.9702 13.264 10.9593 16.1331C10.9483 18.9978 13.2854 21.3411 16.1538 21.3416C19.0212 21.3416 21.3566 19.0027 21.3522 16.1342C21.3478 13.2744 19.0168 10.9487 16.1549 10.9487ZM16.5444 10.3002C16.1971 8.44495 14.2644 6.22439 11.3581 6.30655C8.56417 6.38543 6.34436 8.64105 6.31478 11.434C6.28355 14.3688 8.55541 16.2169 10.3112 16.5324C10.229 14.7818 10.7763 13.2591 12.0155 12.0168C13.2596 10.7696 14.787 10.2191 16.5444 10.3002Z" stroke="#64748B" stroke-width="0.6" mask="url(#path-1-outside-1_524_2584)"/>
            <path d="M18.593 13.5901L18.5929 13.5901C17.2288 15.4925 15.863 17.3938 14.4961 19.2945C14.411 19.413 14.3024 19.5009 14.175 19.5345C14.0439 19.569 13.9124 19.5407 13.7991 19.4626C13.799 19.4625 13.7989 19.4625 13.7988 19.4624L13.884 19.3389C13.7159 19.2234 13.6989 19.0251 13.8473 18.8186C14.4704 17.9503 15.094 17.0822 15.7175 16.2142C16.4558 15.1865 17.194 14.1588 17.9314 13.1308L18.593 13.5901ZM18.593 13.5901C18.6 13.5803 18.6087 13.5698 18.6221 13.5536C18.625 13.5501 18.6281 13.5463 18.6315 13.5422C18.6485 13.5216 18.6701 13.4951 18.6901 13.465C18.73 13.4049 18.7728 13.3171 18.7622 13.2073C18.7499 13.0804 18.6785 12.9927 18.6066 12.9352C18.5386 12.8808 18.4592 12.8446 18.4078 12.8211L18.4062 12.8204C18.4061 12.8203 18.406 12.8203 18.4059 12.8202C18.2754 12.7602 18.1501 12.7695 18.0422 12.8256C17.943 12.8771 17.8671 12.9633 17.8096 13.0432L17.8095 13.0434C17.0721 14.0714 16.3339 15.099 15.5958 16.1266C14.9723 16.9946 14.3488 17.8626 13.7255 18.731M18.593 13.5901L13.7255 18.731M13.7255 18.731L13.8473 18.8186L13.7255 18.7311C13.7255 18.7311 13.7255 18.7311 13.7255 18.7311L13.7255 18.731Z" fill="#64748B" stroke="#64748B" stroke-width="0.3"/>
            <path d="M15.1593 14.1519C15.1566 13.7937 14.8668 13.5034 14.5069 13.499L13.838 14.1519L13.8385 14.152L13.988 14.1528C13.9879 14.161 13.988 14.169 13.9884 14.1771M15.1593 14.1519L15.0093 14.1529C15.0093 14.1529 15.0093 14.1529 15.0093 14.153M15.1593 14.1519L15.0093 14.1531C15.0093 14.1531 15.0093 14.153 15.0093 14.153M15.1593 14.1519C15.1615 14.5146 14.8597 14.8196 14.4965 14.8196C14.1821 14.8201 13.9196 14.5988 13.8538 14.3019H13.9876L13.9884 14.1771M15.0093 14.153C15.0072 13.877 14.7837 13.6524 14.505 13.649L14.5049 13.649C14.2128 13.6452 13.9902 13.8637 13.9885 14.1528L13.9884 14.1771M15.0093 14.153C15.011 14.4327 14.7761 14.6696 14.4965 14.6696L14.4962 14.6696C14.2233 14.6701 13.9993 14.4529 13.9884 14.1771M14.4995 12.6923C13.6852 12.6905 13.0368 13.3331 13.0317 14.1473H13.0317C13.0274 14.9576 13.6737 15.6186 14.4815 15.6253C15.2867 15.632 15.9559 14.9797 15.9651 14.1767L15.9651 14.1766C15.9742 13.357 15.3196 12.6941 14.4995 12.6923Z" fill="#64748B" stroke="#64748B" stroke-width="0.3"/>
            <path d="M16.3481 18.1271C16.3481 18.1272 16.3481 18.1273 16.3481 18.1274L16.3481 18.1271ZM16.3481 18.1271C16.3502 17.3162 17.0004 16.6663 17.8114 16.6645M16.3481 18.1271L17.8114 16.6645M17.8114 16.6645H17.8114C18.6286 16.6626 19.2927 17.3289 19.2842 18.1448C19.2842 18.1448 19.2842 18.1448 19.2842 18.1449L19.1342 18.1433L17.8114 16.6645ZM17.3046 18.1474L17.3049 18.1239C17.3087 17.8361 17.5367 17.6158 17.8256 17.6217L17.8287 17.4718M17.3046 18.1474L17.8101 18.7951C18.17 18.7973 18.4785 18.49 18.4785 18.1301C18.4785 17.7752 18.1859 17.4794 17.8287 17.4718M17.3046 18.1474C17.3136 18.4201 17.5394 18.643 17.8111 18.6451C18.0876 18.6467 18.3285 18.407 18.3285 18.1301C18.3285 17.858 18.1024 17.6277 17.8255 17.6217L17.8287 17.4718M17.3046 18.1474L17.8287 17.4718" fill="#64748B" stroke="#64748B" stroke-width="0.3"/>
        </svg>
        <svg id="business-contacts" width="19" height="21" viewBox="0 0 19 21" fill="none" xmlns="http://www.w3.org/2000/svg">
            <path d="M2.11041 16.7997C1.64406 16.7997 1.21177 16.8009 0.780076 16.7997C0.317249 16.798 -0.00344124 16.5064 8.28233e-05 16.0933C0.00360689 15.6872 0.319011 15.4026 0.770091 15.4003C1.19533 15.398 1.61998 15.398 2.04522 15.3968C2.05872 15.3968 2.07165 15.388 2.09749 15.3793V11.2003C2.02701 11.2003 1.95065 11.2003 1.8743 11.2003C1.48606 11.2003 1.09724 11.205 0.709007 11.1985C0.30139 11.1915 -0.00579062 10.8778 8.28233e-05 10.4886C0.00595627 10.1065 0.309026 9.8073 0.709007 9.80204C1.1689 9.79562 1.62879 9.80088 2.09925 9.80088V5.60088C1.92775 5.60088 1.75566 5.60088 1.58298 5.60088C1.32631 5.60088 1.06964 5.60088 0.813555 5.60088C0.324884 5.59971 0.00301954 5.3245 8.28233e-05 4.90555C-0.0028539 4.48368 0.317249 4.20204 0.802395 4.20088C1.22705 4.20029 1.6517 4.20088 2.11041 4.20088C2.11041 4.11615 2.11041 4.03961 2.11041 3.96306C2.11041 3.35772 2.10747 2.75296 2.111 2.14762C2.11805 0.918239 3.03019 0.003798 4.26538 0.00262938C8.45784 -0.000876461 12.6503 -0.000876461 16.8428 0.00262938C18.0785 0.003798 18.9971 0.915902 18.9983 2.14587C19.0013 7.71548 19.0013 13.2851 18.9983 18.8547C18.9977 20.0847 18.0791 20.9968 16.8428 20.998C12.6503 21.0015 8.45784 21.0015 4.26538 20.998C3.03078 20.9968 2.11746 20.0818 2.11159 18.8524C2.10806 18.1763 2.111 17.4997 2.111 16.7997H2.11041ZM3.51769 16.7997C3.51769 17.4991 3.51534 18.1752 3.51828 18.8512C3.52004 19.3105 3.81195 19.5985 4.2783 19.5985C8.46371 19.5997 12.6491 19.5997 16.8345 19.5985C17.3003 19.5985 17.5905 19.3105 17.5905 18.8471C17.5916 13.2845 17.5916 7.72191 17.5905 2.15872C17.5905 1.6866 17.298 1.40146 16.8181 1.40146C12.6403 1.40088 8.46195 1.40088 4.28417 1.40146C3.80255 1.40146 3.51945 1.68427 3.51769 2.1634C3.51534 2.78335 3.51651 3.40271 3.51769 4.02266C3.51769 4.07817 3.52709 4.13368 3.53296 4.20088C4.00753 4.20088 4.4686 4.1927 4.92908 4.20321C5.46943 4.2149 5.79835 4.77583 5.53874 5.2351C5.39719 5.48518 5.17341 5.60263 4.88444 5.60146C4.43277 5.59971 3.98169 5.60146 3.53413 5.60146V9.80146C4.01282 9.80146 4.47447 9.79503 4.93554 9.80321C5.32847 9.81023 5.63037 10.1275 5.62684 10.5079C5.62332 10.8801 5.32671 11.1869 4.94317 11.198C4.59899 11.2079 4.25422 11.2003 3.90945 11.2009C3.78082 11.2009 3.65278 11.2009 3.52826 11.2009V15.4003C3.97817 15.4003 4.41633 15.3991 4.85448 15.4003C5.30498 15.402 5.62214 15.6878 5.62684 16.0921C5.63095 16.5058 5.31085 16.798 4.84802 16.7997C4.41574 16.8015 3.98345 16.7997 3.51651 16.7997H3.51769Z" fill="#64748B"/>
            <path d="M8.49605 10.3262C7.22445 8.84325 7.73837 7.07923 8.73745 6.25126C9.83637 5.34033 11.4574 5.3859 12.4888 6.35644C13.482 7.29075 13.7728 8.98816 12.6063 10.3204C12.6721 10.3636 12.7355 10.4051 12.7983 10.4472C14.0564 11.2734 14.7154 12.4373 14.773 13.9337C14.7912 14.4047 14.4905 14.6998 14.013 14.6998C11.7053 14.7009 9.39704 14.7015 7.08936 14.6998C6.61655 14.6998 6.317 14.4 6.3358 13.9273C6.39512 12.4303 7.05588 11.2681 8.31691 10.4454C8.37623 10.4069 8.43555 10.3665 8.49605 10.3268V10.3262ZM13.2553 13.2916C13.092 12.1896 11.8574 11.219 10.6023 11.2015C9.306 11.1834 8.062 12.1253 7.85056 13.2916H13.2553ZM11.962 8.41729C11.9684 7.64133 11.3417 7.0056 10.5659 7.00151C9.79525 6.99742 9.15857 7.61387 9.148 8.37347C9.13743 9.1506 9.75766 9.78983 10.533 9.80035C11.3106 9.81145 11.9549 9.18741 11.962 8.41729Z" fill="#64748B"/>
        </svg>
        <svg id="machines" width="24" height="22" viewBox="0 0 24 22" fill="none" xmlns="http://www.w3.org/2000/svg">
            <path d="M22.999 16.3937C22.8257 16.498 22.6592 16.6192 22.4761 16.7019C22.3355 16.7657 22.2494 16.8349 22.2023 16.9966C22.134 17.2327 22.0313 17.4607 21.9216 17.6804C21.8642 17.7958 21.8539 17.8831 21.9067 18.0033C22.157 18.5734 22.215 18.5295 21.7179 19.0287C21.2449 19.5033 21.3063 19.5402 20.6566 19.2449C20.5865 19.2133 20.4792 19.2273 20.4023 19.2566C20.1486 19.3527 19.8966 19.457 19.6527 19.576C19.5683 19.617 19.4747 19.6978 19.442 19.7828C19.2147 20.3717 19.2589 20.3729 18.5879 20.3652C18.5667 20.3652 18.5448 20.3652 18.5236 20.3652C17.9313 20.3652 17.9272 20.367 17.7223 19.8074C17.673 19.6721 17.6024 19.6 17.4646 19.5543C17.2281 19.4758 17.0054 19.3545 16.7701 19.2719C16.6742 19.2379 16.5433 19.2185 16.4584 19.2584C15.831 19.556 15.8614 19.4611 15.466 19.0638C15.4556 19.0539 15.4459 19.0433 15.4355 19.0328C14.935 18.5341 14.989 18.5857 15.2392 17.9874C15.272 17.9095 15.2593 17.7947 15.2295 17.7109C15.1371 17.4513 15.0332 17.1952 14.9184 16.9445C14.8811 16.8636 14.8099 16.7728 14.733 16.7405C14.1136 16.4839 14.1435 16.5495 14.1481 15.8358C14.1481 15.8212 14.1481 15.8065 14.1481 15.7919C14.1481 15.1919 14.1469 15.1884 14.6951 14.978C14.8283 14.927 14.8943 14.852 14.9385 14.7102C15.0137 14.4682 15.1158 14.2333 15.2278 14.0059C15.2846 13.8899 15.2909 13.8026 15.2387 13.683C14.9953 13.127 14.9258 13.1627 15.4195 12.6758C15.4246 12.6705 15.4298 12.6652 15.4344 12.6606C15.8924 12.1977 15.8356 12.1484 16.4756 12.4414C16.5514 12.476 16.6668 12.4631 16.7494 12.432C16.9974 12.3406 17.2425 12.2387 17.4789 12.1215C17.5691 12.077 17.6701 11.9937 17.7057 11.9035C17.9358 11.3129 17.8916 11.324 18.5426 11.3293C18.5494 11.3293 18.5569 11.3293 18.5638 11.3293C19.2336 11.3299 19.2072 11.2754 19.4477 11.9281C19.4764 12.0066 19.5694 12.0787 19.6498 12.1168C19.8886 12.2305 20.1325 12.3354 20.381 12.4232C20.4763 12.4566 20.6078 12.4719 20.6939 12.4315C21.3098 12.1426 21.2771 12.2211 21.6846 12.6324C21.6949 12.643 21.7047 12.6529 21.715 12.6635C22.2201 13.1627 22.1553 13.1217 21.9067 13.6871C21.8533 13.8084 21.8665 13.8952 21.9216 14.01C22.0341 14.245 22.1134 14.4969 22.2259 14.7319C22.2701 14.8239 22.3544 14.9077 22.44 14.9651C22.6196 15.0864 22.8125 15.1872 22.9996 15.2968V16.3931L22.999 16.3937ZM21.3212 13.3069C21.3126 13.1598 21.0744 13.018 20.955 13.0924C20.6376 13.2899 20.3592 13.2658 20.0435 13.0526C19.818 12.9002 19.5338 12.8299 19.2681 12.7502C19.0798 12.694 18.9455 12.6055 18.8864 12.4104C18.8611 12.3272 18.8399 12.2363 18.7911 12.1678C18.7492 12.1086 18.6757 12.0553 18.6068 12.0365C18.4599 11.9967 18.3617 12.0623 18.3285 12.2217C18.2602 12.5492 18.0736 12.7256 17.7378 12.7906C17.4979 12.8369 17.2494 12.9383 17.0496 13.0807C16.7666 13.2817 16.5152 13.2811 16.2363 13.1088C16.1364 13.0473 16.0457 13.0168 15.9366 13.1328C15.8339 13.2418 15.8075 13.3274 15.8867 13.4528C16.0669 13.7405 16.0589 14.0071 15.8597 14.3001C15.7243 14.4987 15.6209 14.7436 15.5813 14.9815C15.5222 15.3372 15.3385 15.5247 15.0142 15.6015C14.8868 15.6319 14.8283 15.694 14.8306 15.8423C14.8328 15.9823 14.8702 16.0591 15.005 16.0895C15.3391 16.1651 15.5142 16.3649 15.5865 16.723C15.6445 17.0083 15.8 17.2773 15.9395 17.5386C16.0342 17.7156 16.0687 17.872 15.9705 18.0525C15.9292 18.1287 15.8844 18.2095 15.8712 18.2933C15.8603 18.3642 15.8735 18.4539 15.9097 18.5154C15.9837 18.642 16.0893 18.683 16.2282 18.5916C16.5095 18.4058 16.7712 18.4164 17.0599 18.6191C17.2608 18.7603 17.5082 18.8623 17.7487 18.908C18.0776 18.9707 18.2515 19.1459 18.3285 19.4617C18.3554 19.5719 18.3881 19.6773 18.5523 19.6715C18.6958 19.6662 18.7836 19.6346 18.8152 19.4851C18.8875 19.1394 19.0896 18.959 19.4391 18.8951C19.6653 18.8541 19.8989 18.755 20.0877 18.6209C20.3742 18.4175 20.6348 18.407 20.92 18.5886C21.0251 18.6554 21.114 18.6683 21.2168 18.5558C21.3086 18.455 21.3448 18.3736 21.2684 18.2546C21.0733 17.9511 21.0939 17.6716 21.3046 17.3693C21.4338 17.1841 21.529 16.9509 21.5646 16.7271C21.6226 16.3655 21.8057 16.1657 22.1421 16.0907C22.2752 16.0608 22.3223 15.9882 22.3183 15.8458C22.3148 15.7181 22.2879 15.6372 22.1587 15.6097C21.8023 15.5347 21.6283 15.3155 21.5554 14.944C21.5021 14.6727 21.3563 14.4137 21.2179 14.1694C21.1089 13.9772 21.0859 13.8096 21.1904 13.6157C21.2449 13.5143 21.2828 13.403 21.3235 13.308L21.3212 13.3069Z" fill="#64748B" stroke="#64748B" stroke-width="0.4"/>
            <path d="M3.47051 19.6695C3.39589 19.6243 3.29372 19.5863 3.22082 19.5154C2.95621 19.2587 2.70308 18.9898 2.44306 18.7284C2.30817 18.5925 2.28866 18.4413 2.36213 18.2685C2.47004 18.0147 2.66061 17.7587 2.65774 17.5055C2.65487 17.2624 2.43847 17.0268 2.33745 16.779C2.23643 16.5305 2.16984 16.2674 2.07054 16.0178C2.03782 15.9358 1.96435 15.8496 1.88744 15.8121C1.68826 15.7149 1.47761 15.6405 1.26982 15.5625C1.08557 15.494 0.998325 15.3656 1.00005 15.1641C1.00407 14.799 1.00349 14.4334 1.00005 14.0678C0.997751 13.868 1.07926 13.7361 1.26638 13.667C1.46785 13.5931 1.66473 13.5058 1.86677 13.4332C1.98387 13.391 2.03897 13.3224 2.08432 13.197C2.24217 12.7605 2.41436 12.3281 2.6055 11.9062C2.66635 11.7714 2.68299 11.673 2.61813 11.5429C2.52457 11.3542 2.44938 11.1568 2.36385 10.964C2.28349 10.7823 2.31219 10.6282 2.45339 10.487C2.70997 10.2321 2.96252 9.97313 3.21279 9.71238C3.35112 9.56824 3.50323 9.54363 3.68059 9.62625C3.88206 9.72059 4.08181 9.82078 4.29017 9.8952C4.37053 9.92391 4.48131 9.91395 4.56224 9.88172C5.00651 9.70418 5.44791 9.51785 5.88587 9.32448C5.96048 9.29167 6.03912 9.22194 6.07241 9.14928C6.16884 8.93834 6.24404 8.71685 6.32497 8.49829C6.39098 8.32016 6.51094 8.23168 6.70036 8.23344C7.06542 8.23696 7.43048 8.23754 7.79554 8.23344C7.99471 8.2311 8.11582 8.32485 8.18298 8.51294C8.25875 8.72564 8.33279 8.93951 8.42865 9.14284C8.46538 9.22077 8.55148 9.29226 8.63184 9.328C9.06291 9.51961 9.49685 9.70418 9.9348 9.87879C10.0215 9.91337 10.1397 9.92098 10.2264 9.89051C10.4347 9.81668 10.6334 9.71238 10.836 9.62097C11.0053 9.54422 11.1534 9.57175 11.2854 9.70887C11.5414 9.9743 11.7997 10.238 12.0597 10.4993C12.1946 10.6347 12.2153 10.7864 12.1418 10.9593C12.0339 11.2136 11.8416 11.4691 11.8445 11.7222C11.8473 11.9648 12.0643 12.2009 12.1653 12.4488C12.2669 12.6972 12.3335 12.9603 12.4322 13.2099C12.4644 13.2914 12.5384 13.3769 12.6148 13.4144C12.8139 13.5123 13.0235 13.5879 13.2312 13.6658C13.4155 13.7349 13.5045 13.8621 13.5027 14.0637C13.4993 14.4293 13.4987 14.7943 13.5027 15.16C13.505 15.3604 13.4224 15.4922 13.2381 15.5631C12.9913 15.6586 12.6854 15.6996 12.5172 15.8754C12.3507 16.0495 12.3341 16.367 12.2331 16.6137C12.1315 16.8622 11.996 17.0965 11.8967 17.3462C11.8594 17.4399 11.8519 17.5682 11.8829 17.6632C11.9501 17.87 12.0494 18.0657 12.1378 18.2655C12.2181 18.4466 12.1906 18.6013 12.0488 18.7425C11.7928 18.9974 11.5397 19.2564 11.2894 19.5177C11.1505 19.663 10.9984 19.6859 10.8216 19.6044C10.6133 19.5083 10.406 19.4075 10.192 19.3267C10.1236 19.3009 10.0272 19.3103 9.95719 19.3384C9.50029 19.523 9.04569 19.7134 8.59453 19.912C8.5268 19.9419 8.4585 20.0128 8.42807 20.082C8.33394 20.2947 8.25645 20.5144 8.17609 20.733C8.11008 20.9123 7.98725 21.0002 7.80013 20.9996C7.43507 20.999 7.07001 20.9984 6.70495 20.9996C6.51898 21.0002 6.39327 20.917 6.32554 20.7382C6.22796 20.4798 6.18606 20.1617 6.00927 19.9829C5.84052 19.8124 5.52597 19.7984 5.28317 19.6964C5.04554 19.5968 4.81135 19.4849 4.58922 19.3548C4.46696 19.2833 4.3711 19.281 4.25171 19.3419C4.07262 19.4327 3.88837 19.5124 3.70412 19.5933C3.63926 19.6214 3.56981 19.6384 3.46821 19.6724L3.47051 19.6695ZM6.89552 20.2794C7.35547 20.3298 7.66447 20.1455 7.82251 19.7263C7.83801 19.6853 7.85695 19.6454 7.86843 19.6038C7.92239 19.4052 8.06129 19.3302 8.24669 19.264C8.71679 19.097 9.19665 18.9364 9.63174 18.6968C9.92504 18.5356 10.15 18.5063 10.4451 18.6569C10.9376 18.9083 10.9427 18.889 11.3273 18.4917C11.41 18.4062 11.4346 18.3411 11.3772 18.228C11.2854 18.047 11.2165 17.8536 11.131 17.669C11.0564 17.5085 11.0667 17.3626 11.1626 17.2143C11.4857 16.7157 11.7027 16.1702 11.8232 15.586C11.8577 15.419 11.9466 15.3135 12.101 15.2555C12.3025 15.1799 12.5046 15.1061 12.7003 15.0176C12.7508 14.9947 12.8082 14.9215 12.8116 14.8682C12.8249 14.6654 12.8168 14.4615 12.8168 14.2529C12.5786 14.1592 12.3536 14.0654 12.1257 13.9816C11.9558 13.9189 11.8577 13.8094 11.8198 13.6236C11.7015 13.0464 11.4852 12.508 11.1654 12.0158C11.0638 11.8593 11.0593 11.707 11.1379 11.5406C11.2246 11.3566 11.3078 11.1702 11.3795 10.9798C11.4002 10.9241 11.4019 10.8321 11.3704 10.7894C11.03 10.3306 10.9852 10.3212 10.4703 10.5544C10.4118 10.5808 10.3504 10.6036 10.2941 10.6347C10.1036 10.7396 9.93193 10.7144 9.7517 10.5931C9.31834 10.3013 8.84709 10.0874 8.33681 9.98544C8.06703 9.93153 7.91894 9.79442 7.82653 9.52898C7.6044 8.89147 7.59349 8.89557 6.92823 8.94186C6.92135 8.94186 6.91446 8.94596 6.89437 8.9524C6.80942 9.17448 6.717 9.403 6.63492 9.63621C6.57408 9.81024 6.46847 9.91336 6.28709 9.95145C5.72113 10.0704 5.19421 10.2931 4.71148 10.6177C4.55765 10.7208 4.40898 10.7273 4.24597 10.6487C4.05885 10.5585 3.87001 10.4688 3.67657 10.3938C3.62549 10.3739 3.53594 10.3874 3.49462 10.4226C3.19576 10.6784 3.12516 10.9868 3.28281 11.3478C3.31209 11.4146 3.33792 11.4825 3.37006 11.5476C3.45329 11.7134 3.43779 11.8663 3.33677 12.0216C3.01763 12.5144 2.80238 13.0529 2.68471 13.6301C2.64855 13.8064 2.55499 13.9142 2.3937 13.9758C2.16008 14.0648 1.92819 14.1586 1.68884 14.2529C1.68884 14.4299 1.6986 14.5986 1.68597 14.765C1.67449 14.918 1.71754 15.0035 1.87022 15.0481C2.04127 15.0985 2.20199 15.184 2.37131 15.2414C2.55269 15.3035 2.63076 15.4289 2.69275 15.6123C2.85576 16.0922 3.01304 16.5821 3.24608 17.0274C3.40565 17.3321 3.44181 17.5677 3.2897 17.8788C3.03887 18.3915 3.05379 18.4032 3.47797 18.7847C3.52561 18.8275 3.63295 18.8427 3.69551 18.8204C3.88378 18.753 4.06631 18.6663 4.24597 18.5767C4.41013 18.4946 4.55765 18.5034 4.71033 18.6071C5.19248 18.9341 5.72056 19.1521 6.28536 19.2745C6.46732 19.3138 6.57293 19.4146 6.63378 19.5886C6.71528 19.8218 6.80827 20.0509 6.89494 20.2783L6.89552 20.2794Z" fill="#64748B" stroke="#64748B" stroke-width="0.4"/>
            <path d="M12.5788 9.29854C12.7217 9.00146 12.5289 8.72782 12.2424 8.48055C12.1621 8.41082 12.0852 8.32293 12.041 8.22624C11.9124 7.94557 11.6897 7.88874 11.4136 7.88698C11.0227 7.88405 10.9848 7.84303 10.8666 7.47095C10.8 7.26294 10.7392 7.05317 10.6674 6.84691C10.6008 6.65648 10.6318 6.48421 10.8 6.38577C11.1576 6.176 11.2913 5.87892 11.2339 5.46641C11.2161 5.34043 11.2345 5.19746 11.277 5.07734C11.3591 4.84472 11.269 4.68827 11.1111 4.54061C11.0428 4.47674 10.9596 4.40935 10.9314 4.32615C10.8913 4.20544 10.8482 4.05075 10.8884 3.94352C10.9906 3.67281 11.1392 3.42027 11.2695 3.16011C11.3528 2.99311 11.4963 2.92338 11.6621 2.96908C12.0593 3.07749 12.3601 2.95561 12.6069 2.62923C12.6833 2.52845 12.7941 2.44114 12.9071 2.38431C13.1201 2.27649 13.1608 2.10656 13.1631 1.88507C13.1683 1.3794 13.1855 1.36709 13.6579 1.2124C13.8416 1.15205 14.027 1.09697 14.2084 1.03017C14.3806 0.966888 14.5401 1.00087 14.6245 1.15381C14.8415 1.54698 15.1618 1.66944 15.5819 1.61612C15.699 1.60147 15.8287 1.62257 15.9418 1.66007C16.1387 1.7257 16.2833 1.67413 16.4136 1.51885C16.4825 1.43624 16.5617 1.34424 16.6559 1.30674C16.7712 1.26045 16.9251 1.21826 17.0301 1.25986C17.2953 1.36416 17.5433 1.51475 17.797 1.64894C17.956 1.73331 18.0312 1.87336 17.9904 2.04855C17.902 2.42591 17.9583 2.73822 18.2883 2.98022C18.4002 3.06225 18.4926 3.19116 18.5569 3.31831C18.6602 3.52222 18.8106 3.59723 19.0242 3.58082C19.1022 3.57496 19.1814 3.58609 19.2601 3.58785C19.4558 3.59078 19.5832 3.68629 19.6429 3.87672C19.7233 4.13396 19.8042 4.3906 19.8857 4.64725C19.9431 4.8289 19.9098 4.99589 19.7485 5.08964C19.3898 5.29766 19.2583 5.60059 19.3117 6.009C19.3249 6.10803 19.3192 6.21995 19.2859 6.31253C19.1826 6.60081 19.2928 6.80004 19.4902 7.00102C19.7675 7.28345 19.764 7.35318 19.5838 7.71178C19.4891 7.89987 19.3932 8.08737 19.3008 8.27722C19.2147 8.45477 19.077 8.56024 18.8864 8.5075C18.499 8.40086 18.1982 8.50399 17.96 8.83212C17.906 8.90595 17.8268 8.97216 17.7453 9.01142C17.4474 9.15674 17.3716 9.40284 17.3745 9.71984C17.3774 10.0708 17.3217 10.1224 16.9939 10.2314C16.7833 10.3011 16.5698 10.3632 16.3614 10.4394C16.1743 10.5074 16.0032 10.4769 15.9085 10.3058C15.6996 9.92726 15.3896 9.8089 14.9878 9.85988C14.9046 9.87043 14.8099 9.86632 14.733 9.83585C14.4351 9.71984 14.2279 9.83996 14.0207 10.055C13.7618 10.3228 13.6872 10.3187 13.36 10.1482C13.1758 10.0521 12.9938 9.94953 12.8061 9.85988C12.6127 9.7673 12.5203 9.62491 12.5782 9.29736L12.5788 9.29854ZM13.294 8.92821C13.29 8.99443 13.2917 9.02431 13.2854 9.05244C13.2515 9.21357 13.267 9.32608 13.4438 9.4169C13.6223 9.50831 13.7044 9.42159 13.8071 9.31787C13.8479 9.27686 13.8955 9.24287 13.9351 9.20068C14.0769 9.05009 14.233 9.02372 14.4403 9.06005C14.7898 9.12158 15.1491 9.16201 15.5033 9.15381C15.7696 9.14736 15.9625 9.20947 16.1014 9.44034C16.1312 9.48956 16.1795 9.52764 16.2082 9.57745C16.2793 9.70284 16.3694 9.71222 16.4957 9.66241C16.6134 9.61612 16.7288 9.59151 16.7156 9.42217C16.7087 9.33545 16.7288 9.24697 16.7242 9.15967C16.7127 8.93642 16.8217 8.80458 16.998 8.68094C17.2614 8.49578 17.5398 8.30711 17.739 8.05866C17.9686 7.77155 18.22 7.69068 18.5449 7.77448C18.7159 7.81901 18.7997 7.76041 18.8743 7.60279C18.9386 7.46685 18.9346 7.37486 18.8215 7.28169C18.5357 7.04555 18.4519 6.76664 18.5673 6.39163C18.6402 6.15432 18.6637 5.87892 18.6275 5.63341C18.5713 5.25313 18.6912 4.99824 19.0012 4.80897C19.1085 4.74335 19.1843 4.6701 19.128 4.51072C19.0741 4.35896 19.0247 4.2447 18.8393 4.26873C18.7768 4.27693 18.7108 4.25115 18.647 4.25584C18.4117 4.27283 18.2734 4.15505 18.1437 3.95934C17.9651 3.68922 17.7729 3.41148 17.5301 3.2064C17.2643 2.9808 17.1925 2.74115 17.2626 2.42005C17.2896 2.29583 17.3205 2.17746 17.1547 2.09074C16.9888 2.00402 16.8711 1.99641 16.7483 2.14817C16.6851 2.2261 16.6099 2.30462 16.5233 2.34915C16.4268 2.39837 16.3 2.45403 16.2064 2.42884C15.7708 2.31165 15.3317 2.29993 14.8857 2.31282C14.7749 2.31575 14.6503 2.23489 14.5528 2.16282C14.469 2.1007 14.4052 2.00285 14.349 1.91086C14.2692 1.7796 14.1797 1.77609 14.0425 1.81769C13.8973 1.86222 13.8203 1.92199 13.8358 2.08547C13.8427 2.15696 13.8181 2.23137 13.8221 2.30344C13.8347 2.54427 13.717 2.68314 13.5236 2.81264C13.2687 2.98373 13.003 3.16889 12.817 3.40913C12.5863 3.70738 12.328 3.78532 11.9939 3.70621C11.8527 3.67281 11.7614 3.68922 11.6885 3.84625C11.6208 3.99216 11.6024 4.09353 11.731 4.20603C11.812 4.27693 11.8975 4.35662 11.9422 4.45154C11.9945 4.56229 12.0329 4.69589 12.0266 4.81659C12.0037 5.25137 11.9687 5.68614 11.9176 6.11858C11.9026 6.24397 11.8349 6.37171 11.7643 6.47894C11.7109 6.5598 11.6168 6.61546 11.5347 6.67406C11.4245 6.75258 11.3746 6.82816 11.4262 6.98285C11.4773 7.13579 11.537 7.2231 11.7035 7.21196C11.7746 7.20727 11.847 7.22602 11.9176 7.22192C12.1351 7.20845 12.266 7.31626 12.3894 7.49615C12.5857 7.78092 12.7969 8.06335 13.0443 8.30066C13.2469 8.4952 13.3795 8.67625 13.294 8.92821Z" fill="#64748B" stroke="#64748B" stroke-width="0.4"/>
            <path d="M18.5702 13.7437C19.7085 13.7414 20.6343 14.683 20.6354 15.8444C20.6366 17.0046 19.7119 17.9503 18.5754 17.9526C17.4406 17.955 16.5113 17.0087 16.5107 15.8491C16.5096 14.6865 17.4297 13.7455 18.5702 13.7432V13.7437ZM18.5702 14.4457C17.8074 14.4469 17.1949 15.0762 17.1978 15.8549C17.2007 16.6202 17.8114 17.2442 18.5645 17.2507C19.321 17.2571 19.9467 16.6237 19.9478 15.8497C19.949 15.0721 19.3325 14.444 18.5702 14.4457Z" fill="#64748B" stroke="#64748B" stroke-width="0.4"/>
            <path d="M7.27953 11.7221C8.85801 11.7484 10.1076 13.0551 10.0818 14.6524C10.0559 16.2614 8.77823 17.5265 7.20319 17.5013C5.64308 17.4767 4.39867 16.1677 4.4222 14.5751C4.44574 12.9819 5.7332 11.6963 7.27896 11.7221H7.27953ZM9.39412 14.6208C9.39929 13.4131 8.44531 12.4316 7.25944 12.4246C6.07989 12.4176 5.11616 13.3961 5.11099 14.6067C5.10583 15.8179 6.05693 16.7952 7.24509 16.7993C8.43268 16.8034 9.38895 15.8337 9.39412 14.6214V14.6208Z" fill="#64748B" stroke="#64748B" stroke-width="0.4"/>
            <path d="M17.4584 5.74863C17.4544 6.97971 16.4735 7.9729 15.2635 7.97114C14.065 7.96938 13.0749 6.951 13.084 5.7287C13.0927 4.50231 14.0862 3.4974 15.283 3.50443C16.4872 3.51146 17.4625 4.51754 17.4584 5.74863ZM16.7708 5.73691C16.7691 4.89079 16.0952 4.20523 15.2658 4.2064C14.4553 4.20757 13.7769 4.89958 13.7717 5.73046C13.7665 6.57013 14.4473 7.26976 15.2704 7.26976C16.0998 7.26976 16.7725 6.58302 16.7708 5.73632V5.73691Z" fill="#64748B" stroke="#64748B" stroke-width="0.4"/>
        </svg>
        <svg id="quotes" width="19" height="20" viewBox="0 0 19 20" fill="none" xmlns="http://www.w3.org/2000/svg">
            <path d="M9.5 0.367676C4.25308 0.367676 0 4.62075 0 9.86768C0 15.1146 4.25308 19.3677 9.5 19.3677C14.7469 19.3677 19 15.1146 19 9.86768C19 4.62075 14.7469 0.367676 9.5 0.367676ZM9.5 17.9061C5.06058 17.9061 1.46154 14.3071 1.46154 9.86768C1.46154 5.42825 5.06058 1.82921 9.5 1.82921C13.9394 1.82921 17.5385 5.42825 17.5385 9.86768C17.5385 14.3071 13.9394 17.9061 9.5 17.9061ZM8.51492 6.77725C8.02238 6.23721 7.43119 5.96756 6.73842 5.96756C6.02958 5.96756 5.44496 6.2131 4.98677 6.70491C4.80188 6.9066 4.65427 7.1441 4.54538 7.41814C4.4365 7.69218 4.38242 7.9706 4.38242 8.25194C4.38242 8.83218 4.54611 9.32618 4.87204 9.73321C5.19796 10.1403 5.624 10.3836 6.14869 10.464L6.33065 10.4757L6.48777 10.5005C6.72965 10.5327 6.85096 10.6255 6.85096 10.7782C6.85096 10.9397 6.68946 11.1933 6.36646 11.5397C6.02738 11.9102 5.491 12.2858 4.75658 12.6636C4.44965 12.8251 4.29692 13.0261 4.29692 13.2679C4.29692 13.4214 4.34881 13.5486 4.45404 13.6487C4.55854 13.7495 4.69154 13.7992 4.85304 13.7992C5.25569 13.7992 5.81181 13.5661 6.52065 13.0984C7.35812 12.5503 8.0275 11.8839 8.52662 11.0976C9.02646 10.3127 9.27565 9.53664 9.27565 8.77079C9.27565 8.40833 9.20696 8.04806 9.07031 7.68925C8.93365 7.33044 8.74804 7.02718 8.51492 6.77725ZM14.2668 6.77725C13.7772 6.23721 13.1904 5.96756 12.5071 5.96756C11.7917 5.96756 11.2085 6.2131 10.7584 6.70491C10.5728 6.9066 10.4266 7.14629 10.3177 7.42398C10.2088 7.70168 10.1548 7.97791 10.1548 8.25194C10.1548 8.83218 10.3155 9.32837 10.6363 9.73906C10.9572 10.1498 11.3803 10.3916 11.902 10.464L12.095 10.4757L12.2389 10.5005C12.4801 10.5327 12.6007 10.6255 12.6007 10.7782C12.6007 10.9397 12.4435 11.1933 12.13 11.5397C11.8005 11.8941 11.2655 12.269 10.5267 12.6636C10.2205 12.8251 10.0678 13.0261 10.0678 13.2679C10.0678 13.4214 10.1204 13.5486 10.2249 13.6487C10.3302 13.7495 10.4624 13.7992 10.6232 13.7992C11.0251 13.7992 11.5805 13.5661 12.2872 13.0984C13.1239 12.5503 13.7896 11.8839 14.2836 11.0976C14.7776 10.3127 15.0253 9.53664 15.0253 8.77079C15.0253 8.40833 14.9574 8.04806 14.8207 7.68925C14.6855 7.33118 14.5007 7.02718 14.2668 6.77725Z" fill="currentColor"/>
        </svg>
        <svg id="invoices" width="20" height="20" viewBox="0 0 20 20" fill="none" xmlns="http://www.w3.org/2000/svg">
            <path fill-rule="evenodd" clip-rule="evenodd" d="M4.89209 0.533479C5.38246 0.288311 5.96748 0 7.0481 0C8.12866 0 8.71374 0.288285 9.20411 0.533453L9.21812 0.540475C9.60189 0.732394 9.89896 0.880933 10.5721 0.880951C11.662 0.880995 12.3076 0.47461 12.5228 0.312865C12.8578 0.0610717 13.2537 0.0823041 13.527 0.208712C13.8038 0.336749 14.0962 0.642249 14.0962 1.09376V10.5721H16.7392C18.1984 10.5721 19.3823 11.754 19.3823 13.2143V15.8582C19.3823 16.6732 19.176 17.3429 18.8213 17.8749C18.4703 18.4014 18.0086 18.7414 17.5737 18.9589C17.1423 19.1746 16.7215 19.278 16.416 19.329C16.2326 19.3595 16.0446 19.3826 15.8582 19.3823H3.52405C2.70913 19.3823 2.03937 19.176 1.50734 18.8213C0.98084 18.4703 0.640839 18.0086 0.423388 17.5737C0.207672 17.1423 0.104197 16.7215 0.0532836 16.4161C0.0274788 16.2612 0.0142371 16.1303 0.00740047 16.0346C0.00170913 15.9549 2.64304e-05 15.9076 0 15.8582V1.09374C0 0.642249 0.292355 0.336749 0.569187 0.208712C0.842494 0.0822953 1.23836 0.061063 1.57339 0.312839C1.78862 0.474584 2.43414 0.880951 3.52405 0.880951C4.19727 0.880951 4.49429 0.732421 4.87806 0.540501L4.89209 0.533479ZM1.76495 15.8582L1.76202 2.36438C2.23793 2.52478 2.82569 2.64298 3.52405 2.64298C4.60466 2.64298 5.18968 2.35467 5.68005 2.1095L5.69409 2.10248C6.07786 1.91056 6.37487 1.76202 7.0481 1.76202C7.72134 1.76202 8.01836 1.91055 8.40212 2.10247L8.41613 2.10949C8.9065 2.35465 9.4915 2.64295 10.5721 2.64298C11.2705 2.643 11.8582 2.52481 12.3342 2.3644V15.8582C12.3342 16.5481 12.482 17.1339 12.7425 17.6202H3.52405C3.01745 17.6202 2.69607 17.4961 2.48475 17.3552C2.26789 17.2107 2.11232 17.0116 1.9994 16.7857C1.88473 16.5564 1.82302 16.3164 1.79134 16.1264C1.77645 16.037 1.76742 15.9484 1.76495 15.8582ZM16.1264 17.5909C16.3164 17.5593 16.5564 17.4975 16.7857 17.3829C17.0116 17.27 17.2107 17.1144 17.3552 16.8976C17.4961 16.6862 17.6202 16.3648 17.6202 15.8582V13.2143C17.6202 12.7283 17.2263 12.3342 16.7392 12.3342H14.0962V15.8582C14.0962 16.3648 14.2203 16.6862 14.3612 16.8976C14.5058 17.1144 14.7048 17.27 14.9307 17.3829C15.16 17.4975 15.4 17.5593 15.5901 17.5909C15.6831 17.6064 15.7586 17.6138 15.8074 17.6173C15.9136 17.6249 16.0218 17.6084 16.1264 17.5909Z" fill="currentColor"/>
            <path d="M3.52344 6.16715C3.52344 5.68058 3.91788 5.28613 4.40445 5.28613H9.69052C10.1771 5.28613 10.5715 5.68058 10.5715 6.16715C10.5715 6.65372 10.1771 7.04816 9.69052 7.04816H4.40445C3.91788 7.04816 3.52344 6.65372 3.52344 6.16715Z" fill="currentColor"/>
            <path d="M3.52344 9.69107C3.52344 9.20449 3.91788 8.81006 4.40445 8.81006H9.69052C10.1771 8.81006 10.5715 9.20449 10.5715 9.69107C10.5715 10.1777 10.1771 10.5721 9.69052 10.5721H4.40445C3.91788 10.5721 3.52344 10.1777 3.52344 9.69107Z" fill="currentColor"/>
            <path d="M3.52344 13.2155C3.52344 12.7289 3.91788 12.3345 4.40445 12.3345H9.69052C10.1771 12.3345 10.5715 12.7289 10.5715 13.2155C10.5715 13.7021 10.1771 14.0965 9.69052 14.0965H4.40445C3.91788 14.0965 3.52344 13.7021 3.52344 13.2155Z" fill="currentColor"/>
        </svg>
        <svg id="sale-orders" width="18" height="24" viewBox="0 0 18 24" fill="none" xmlns="http://www.w3.org/2000/svg">
            <path fill-rule="evenodd" clip-rule="evenodd" d="M2.06628 4.41572C1.97423 4.41572 1.89961 4.49034 1.89961 4.58239V21.6491C1.89961 21.7411 1.97423 21.8157 2.06628 21.8157H15.9329C16.025 21.8157 16.0996 21.7411 16.0996 21.6491V4.58239C16.0996 4.49034 16.025 4.41572 15.9329 4.41572H2.06628ZM0.0996094 4.58239C0.0996094 3.49623 0.980116 2.61572 2.06628 2.61572H15.9329C17.0191 2.61572 17.8996 3.49623 17.8996 4.58239V21.6491C17.8996 22.7352 17.0191 23.6157 15.9329 23.6157H2.06628C0.980116 23.6157 0.0996094 22.7352 0.0996094 21.6491V4.58239Z" fill="currentColor"/>
            <path fill-rule="evenodd" clip-rule="evenodd" d="M5.79967 0.482422C6.29673 0.482422 6.69967 0.885366 6.69967 1.38242V4.58242C6.69967 5.07948 6.29673 5.48242 5.79967 5.48242C5.30262 5.48242 4.89967 5.07948 4.89967 4.58242V1.38242C4.89967 0.885366 5.30262 0.482422 5.79967 0.482422ZM12.1997 0.482422C12.6967 0.482422 13.0997 0.885366 13.0997 1.38242V4.58242C13.0997 5.07948 12.6967 5.48242 12.1997 5.48242C11.7026 5.48242 11.2997 5.07948 11.2997 4.58242V1.38242C11.2997 0.885366 11.7026 0.482422 12.1997 0.482422ZM3.83301 9.38242C3.83301 8.88536 4.23595 8.48242 4.73301 8.48242H13.2663C13.7634 8.48242 14.1663 8.88536 14.1663 9.38242C14.1663 9.87948 13.7634 10.2824 13.2663 10.2824H4.73301C4.23595 10.2824 3.83301 9.87948 3.83301 9.38242ZM3.83301 13.6491C3.83301 13.152 4.23595 12.7491 4.73301 12.7491H11.133C11.6301 12.7491 12.033 13.152 12.033 13.6491C12.033 14.1461 11.6301 14.5491 11.133 14.5491H4.73301C4.23595 14.5491 3.83301 14.1461 3.83301 13.6491ZM3.83301 17.9158C3.83301 17.4187 4.23595 17.0158 4.73301 17.0158H8.99967C9.49673 17.0158 9.89967 17.4187 9.89967 17.9158C9.89967 18.4128 9.49673 18.8158 8.99967 18.8158H4.73301C4.23595 18.8158 3.83301 18.4128 3.83301 17.9158Z" fill="currentColor"/>
        </svg>
        <svg id="clients" width="19" height="17" viewBox="0 0 19 17" fill="none" xmlns="http://www.w3.org/2000/svg">
            <path fill-rule="evenodd" clip-rule="evenodd" d="M6.85981 1.75C5.6946 1.75 4.75 2.6946 4.75 3.85981C4.75 5.02503 5.6946 5.96962 6.85981 5.96962C8.02503 5.96962 8.96962 5.02503 8.96962 3.85981C8.96962 2.6946 8.02503 1.75 6.85981 1.75ZM3.25 3.85981C3.25 1.86617 4.86617 0.25 6.85981 0.25C8.85346 0.25 10.4696 1.86617 10.4696 3.85981C10.4696 5.85346 8.85346 7.46962 6.85981 7.46962C4.86617 7.46962 3.25 5.85346 3.25 3.85981Z" fill="currentColor"/>
            <path fill-rule="evenodd" clip-rule="evenodd" d="M3.04323 10.5961C2.11635 11.1175 1.75021 11.7203 1.75021 12.2173C1.75021 13.1708 1.79052 13.5863 2.18877 13.9106C2.41678 14.0963 2.8224 14.2969 3.56198 14.4466C4.29825 14.5957 5.31571 14.6846 6.71984 14.6846C8.12396 14.6846 9.14142 14.5957 9.87769 14.4466C10.6173 14.2969 11.0229 14.0963 11.2509 13.9106C11.6492 13.5863 11.6895 13.1708 11.6895 12.2173C11.6895 11.7203 11.3233 11.1175 10.3964 10.5961C9.49312 10.0879 8.19473 9.75 6.71984 9.75C5.24494 9.75 3.94656 10.0879 3.04323 10.5961ZM2.30782 9.28872C3.47464 8.63237 5.03607 8.25 6.71984 8.25C8.4036 8.25 9.96503 8.63237 11.1318 9.28872C12.2751 9.93182 13.1895 10.9376 13.1895 12.2173C13.1895 12.2467 13.1895 12.2765 13.1896 12.3069C13.191 13.1252 13.1929 14.2636 12.1981 15.0737C11.7112 15.4703 11.0444 15.7409 10.1753 15.9168C9.30292 16.0934 8.17552 16.1846 6.71984 16.1846C5.26415 16.1846 4.13675 16.0934 3.26437 15.9168C2.39531 15.7409 1.72851 15.4703 1.24156 15.0737C0.246741 14.2636 0.2487 13.1252 0.250108 12.3069C0.25016 12.2765 0.250212 12.2467 0.250212 12.2173C0.250212 10.9376 1.16455 9.93182 2.30782 9.28872Z" fill="currentColor"/>
            <path fill-rule="evenodd" clip-rule="evenodd" d="M13.693 4.13281C12.8788 4.13281 12.2188 4.79288 12.2188 5.60711C12.2188 6.42134 12.8788 7.08141 13.693 7.08141C14.5073 7.08141 15.1673 6.42134 15.1673 5.60711C15.1673 4.79288 14.5073 4.13281 13.693 4.13281ZM10.7188 5.60711C10.7188 3.96445 12.0504 2.63281 13.693 2.63281C15.3357 2.63281 16.6673 3.96445 16.6673 5.60711C16.6673 7.24977 15.3357 8.58141 13.693 8.58141C12.0504 8.58141 10.7188 7.24977 10.7188 5.60711Z" fill="currentColor"/>
            <path fill-rule="evenodd" clip-rule="evenodd" d="M13.5516 10.3848C12.6569 10.3848 11.8477 10.5485 11.2119 10.8103L10.6406 9.42338C11.4766 9.07902 12.4826 8.88477 13.5516 8.88477C14.8845 8.88477 16.1281 9.1871 17.0649 9.71406C17.9782 10.2278 18.7502 11.0548 18.7502 12.1371C18.7502 12.1629 18.7503 12.1895 18.7504 12.2166C18.752 12.8461 18.7545 13.8066 17.9178 14.488C17.5103 14.8199 16.9626 15.0381 16.2723 15.1779C15.5787 15.3183 14.6896 15.3894 13.5516 15.3894C12.6945 15.3894 11.981 15.349 11.3873 15.27L11.5852 13.7831C12.0938 13.8508 12.7376 13.8894 13.5516 13.8894C14.638 13.8894 15.4172 13.8205 15.9747 13.7077C16.5355 13.5941 16.822 13.4459 16.9706 13.3249C17.2099 13.13 17.2502 12.8932 17.2502 12.1371C17.2502 11.8375 17.0264 11.4134 16.3295 11.0214C15.6562 10.6427 14.6756 10.3848 13.5516 10.3848Z" fill="currentColor"/>
        </svg>
        <svg id="suppliers" width="19" height="19" viewBox="0 0 19 19" fill="none" xmlns="http://www.w3.org/2000/svg">
            <path fill-rule="evenodd" clip-rule="evenodd" d="M9.24684 6.29961C8.9486 6.29961 8.70684 6.54138 8.70684 6.83961C8.70684 7.13784 8.9486 7.37961 9.24684 7.37961C9.54507 7.37961 9.78684 7.13784 9.78684 6.83961C9.78684 6.54138 9.54507 6.29961 9.24684 6.29961ZM7.50684 6.83961C7.50684 5.87863 8.28586 5.09961 9.24684 5.09961C10.2078 5.09961 10.9868 5.87863 10.9868 6.83961C10.9868 7.80058 10.2078 8.57961 9.24684 8.57961C8.28586 8.57961 7.50684 7.80058 7.50684 6.83961Z" fill="currentColor"/>
            <path fill-rule="evenodd" clip-rule="evenodd" d="M7.92857 10.3668C7.60252 10.5502 7.56658 10.7096 7.56658 10.7507C7.56658 11.1415 7.59643 11.1652 7.62686 11.1894C7.62806 11.1903 7.62926 11.1913 7.63046 11.1923C7.66939 11.224 7.77866 11.2899 8.0475 11.3443C8.31368 11.3982 8.6972 11.4332 9.24658 11.4332C9.79596 11.4332 10.1795 11.3982 10.4457 11.3443C10.7145 11.2899 10.8238 11.224 10.8627 11.1923C10.8639 11.1913 10.8651 11.1903 10.8663 11.1894C10.8967 11.1652 10.9266 11.1415 10.9266 10.7507C10.9266 10.7096 10.8906 10.5502 10.5646 10.3668C10.2574 10.194 9.7926 10.0682 9.24658 10.0682C8.70056 10.0682 8.23578 10.194 7.92857 10.3668ZM7.34025 9.32089C7.85825 9.0295 8.53347 8.86816 9.24658 8.86816C9.9597 8.86816 10.6349 9.0295 11.1529 9.32089C11.6521 9.60167 12.1266 10.0835 12.1266 10.7507C12.1266 10.766 12.1267 10.7823 12.1268 10.7993C12.1284 11.1165 12.1314 11.7066 11.6205 12.1227C11.3744 12.3231 11.0562 12.4451 10.6837 12.5204C10.3087 12.5964 9.8372 12.6332 9.24658 12.6332C8.65596 12.6332 8.18448 12.5964 7.80941 12.5204C7.437 12.4451 7.11877 12.3231 6.8727 12.1227C6.36174 11.7066 6.36478 11.1165 6.36641 10.7993C6.3665 10.7823 6.36658 10.766 6.36658 10.7507C6.36658 10.0835 6.84108 9.60167 7.34025 9.32089Z" fill="currentColor"/>
            <path d="M15.8338 13.9334C14.7844 13.9334 13.9338 14.784 13.9338 15.8334H4.75046C3.99459 15.8334 3.26968 15.5331 2.7352 14.9986C2.20072 14.4641 1.90046 13.7392 1.90046 12.9834C1.90046 12.2275 2.20072 11.5026 2.7352 10.9681C3.26968 10.4336 3.99459 10.1334 4.75046 10.1334H5.06712C5.4169 10.1334 5.70046 9.84981 5.70046 9.50003C5.70046 9.15025 5.4169 8.8667 5.06712 8.8667H4.75046C3.65865 8.8667 2.61156 9.30042 1.83953 10.0724C1.06751 10.8445 0.633789 11.8916 0.633789 12.9834C0.633789 14.0752 1.06751 15.1223 1.83953 15.8943C2.61156 16.6663 3.65865 17.1 4.75046 17.1H13.9338C13.9338 18.1494 14.7844 19 15.8338 19H17.0005C18.105 19 19.0005 18.1046 19.0005 17V15.9334C19.0005 14.8288 18.105 13.9334 17.0005 13.9334H15.8338ZM17.7338 16.7334C17.7338 17.2857 17.2861 17.7334 16.7338 17.7334H16.2005C15.6482 17.7334 15.2005 17.2857 15.2005 16.7334V16.2C15.2005 15.6477 15.6482 15.2 16.2005 15.2H16.7338C17.2861 15.2 17.7338 15.6477 17.7338 16.2V16.7334Z" fill="currentColor"/>
            <path d="M14.25 1.9H5.06667C5.06667 0.850659 4.21601 0 3.16667 0H2C0.895431 0 0 0.895431 0 2V3.06667C0 4.17124 0.895431 5.06667 2 5.06667H3.16667C4.21601 5.06667 5.06667 4.21601 5.06667 3.16667H14.25C15.0059 3.16667 15.7308 3.46693 16.2653 4.00141C16.7997 4.53589 17.1 5.2608 17.1 6.01667C17.1 6.77253 16.7997 7.49744 16.2653 8.03192C15.7308 8.5664 15.0059 8.86667 14.25 8.86667H13.9333C13.5836 8.86667 13.3 9.15022 13.3 9.5C13.3 9.84978 13.5836 10.1333 13.9333 10.1333H14.25C15.3418 10.1333 16.3889 9.69961 17.1609 8.92759C17.9329 8.15557 18.3667 7.10847 18.3667 6.01667C18.3667 4.92486 17.9329 3.87777 17.1609 3.10574C16.3889 2.33372 15.3418 1.9 14.25 1.9ZM3.8 2.8C3.8 3.35228 3.35228 3.8 2.8 3.8H2.26667C1.71438 3.8 1.26667 3.35228 1.26667 2.8V2.26667C1.26667 1.71438 1.71438 1.26667 2.26667 1.26667H2.8C3.35228 1.26667 3.8 1.71438 3.8 2.26667V2.8Z" fill="currentColor"/>
        </svg>
        <svg id="stock-overview" width="18" height="19" viewBox="0 0 18 19" fill="none" xmlns="http://www.w3.org/2000/svg">
            <path fill-rule="evenodd" clip-rule="evenodd" d="M2.78947 1.75C2.51379 1.75 2.24939 1.85952 2.05445 2.05445C1.85952 2.24939 1.75 2.51379 1.75 2.78947V15.3158C1.75 15.5915 1.85952 15.8559 2.05445 16.0508C2.24939 16.2457 2.51379 16.3553 2.78947 16.3553H7.71053C8.12474 16.3553 8.46053 16.691 8.46053 17.1053C8.46053 17.5195 8.12474 17.8553 7.71053 17.8553H2.78947C2.11596 17.8553 1.47004 17.5877 0.993795 17.1115C0.517551 16.6352 0.25 15.9893 0.25 15.3158V2.78947C0.25 2.11596 0.517551 1.47004 0.993795 0.993795C1.47004 0.517551 2.11596 0.25 2.78947 0.25H13.5263C14.1998 0.25 14.8458 0.517551 15.322 0.993795C15.7982 1.47004 16.0658 2.11596 16.0658 2.78947V8.15789C16.0658 8.57211 15.73 8.90789 15.3158 8.90789C14.9016 8.90789 14.5658 8.57211 14.5658 8.15789V2.78947C14.5658 2.51379 14.4563 2.24939 14.2613 2.05445C14.0664 1.85952 13.802 1.75 13.5263 1.75H2.78947ZM3.75 5.5C3.75 5.08579 4.08579 4.75 4.5 4.75H12C12.4142 4.75 12.75 5.08579 12.75 5.5C12.75 5.91421 12.4142 6.25 12 6.25H4.5C4.08579 6.25 3.75 5.91421 3.75 5.5ZM3.75 9.5C3.75 9.08579 4.08579 8.75 4.5 8.75H10C10.4142 8.75 10.75 9.08579 10.75 9.5C10.75 9.91421 10.4142 10.25 10 10.25H4.5C4.08579 10.25 3.75 9.91421 3.75 9.5ZM3.75 13.5C3.75 13.0858 4.08579 12.75 4.5 12.75H7.71053C8.12474 12.75 8.46053 13.0858 8.46053 13.5C8.46053 13.9142 8.12474 14.25 7.71053 14.25H4.5C4.08579 14.25 3.75 13.9142 3.75 13.5Z" fill="currentColor"/>
            <path fill-rule="evenodd" clip-rule="evenodd" d="M11.0977 11.9932C11.7417 11.3491 12.6152 10.9873 13.526 10.9873C14.4368 10.9873 15.3103 11.3491 15.9544 11.9932C16.5984 12.6372 16.9602 13.5107 16.9602 14.4215C16.9602 15.078 16.7722 15.7151 16.4261 16.2609L17.6353 17.4701C17.9282 17.763 17.9282 18.2379 17.6353 18.5308C17.3424 18.8237 16.8675 18.8237 16.5746 18.5308L15.3654 17.3216C14.8196 17.6677 14.1825 17.8557 13.526 17.8557C12.6152 17.8557 11.7417 17.4939 11.0977 16.8499C10.4536 16.2058 10.0918 15.3323 10.0918 14.4215C10.0918 13.5107 10.4536 12.6372 11.0977 11.9932ZM13.526 12.4873C13.013 12.4873 12.521 12.6911 12.1583 13.0538C11.7956 13.4166 11.5918 13.9085 11.5918 14.4215C11.5918 14.9345 11.7956 15.4265 12.1583 15.7892C12.521 16.1519 13.013 16.3557 13.526 16.3557C14.039 16.3557 14.531 16.1519 14.8937 15.7892C15.2564 15.4265 15.4602 14.9345 15.4602 14.4215C15.4602 13.9085 15.2564 13.4166 14.8937 13.0538C14.531 12.6911 14.039 12.4873 13.526 12.4873Z" fill="currentColor"/>
        </svg>
        <svg id="grv" width="17" height="17" viewBox="0 0 17 17" fill="none" xmlns="http://www.w3.org/2000/svg">
            <path fill-rule="evenodd" clip-rule="evenodd" d="M8.89492 0.200195C9.33675 0.200195 9.69492 0.558368 9.69492 1.0002V5.73703C9.69492 6.17886 9.33675 6.53703 8.89492 6.53703C8.45309 6.53703 8.09492 6.17886 8.09492 5.73703V1.0002C8.09492 0.558368 8.45309 0.200195 8.89492 0.200195ZM4.94756 4.93703C5.38938 4.93703 5.74756 5.2952 5.74756 5.73703V12.8423C5.74756 13.2841 5.38938 13.6423 4.94756 13.6423C4.50573 13.6423 4.14756 13.2841 4.14756 12.8423V5.73703C4.14756 5.2952 4.50573 4.93703 4.94756 4.93703ZM1.0002 7.30545C1.44202 7.30545 1.8002 7.66362 1.8002 8.10545V12.8423C1.8002 13.2841 1.44202 13.6423 1.0002 13.6423C0.558368 13.6423 0.200195 13.2841 0.200195 12.8423V8.10545C0.200195 7.66362 0.558368 7.30545 1.0002 7.30545Z" fill="currentColor"/>
            <path fill-rule="evenodd" clip-rule="evenodd" d="M11.6585 8.06543C9.67464 8.06543 8.06641 9.67367 8.06641 11.6575C8.06641 13.6414 9.67464 15.2496 11.6585 15.2496C13.6424 15.2496 15.2506 13.6414 15.2506 11.6575C15.2506 9.67367 13.6424 8.06543 11.6585 8.06543ZM6.56641 11.6575C6.56641 8.84524 8.84622 6.56543 11.6585 6.56543C14.4708 6.56543 16.7506 8.84524 16.7506 11.6575C16.7506 14.4698 14.4708 16.7496 11.6585 16.7496C8.84622 16.7496 6.56641 14.4698 6.56641 11.6575Z" fill="currentColor"/>
            <path fill-rule="evenodd" clip-rule="evenodd" d="M11.1581 9.05051C10.4487 9.23269 9.85547 9.79402 9.85547 10.5725C9.85547 11.3509 10.4487 11.9122 11.1581 12.0944V13.2003C10.957 13.0781 10.8555 12.8916 10.8555 12.7435C10.8555 12.4674 10.6316 12.2435 10.3555 12.2435C10.0793 12.2435 9.85547 12.4674 9.85547 12.7435C9.85547 13.522 10.4487 14.0833 11.1581 14.2655C11.1593 14.5406 11.3827 14.7633 11.6581 14.7633C11.9335 14.7633 12.1569 14.5406 12.1581 14.2655C12.8675 14.0833 13.4607 13.522 13.4607 12.7435C13.4607 11.9651 12.8675 11.4037 12.1581 11.2216V10.1157C12.3592 10.2379 12.4607 10.4243 12.4607 10.5725C12.4607 10.8486 12.6846 11.0725 12.9607 11.0725C13.2369 11.0725 13.4607 10.8486 13.4607 10.5725C13.4607 9.79402 12.8675 9.23269 12.1581 9.05051C12.1569 8.77539 11.9335 8.55273 11.6581 8.55273C11.3827 8.55273 11.1593 8.77539 11.1581 9.05051ZM12.1581 12.2867V13.2003C12.3592 13.0781 12.4607 12.8916 12.4607 12.7435C12.4607 12.5954 12.3592 12.4089 12.1581 12.2867ZM11.1581 11.0293V10.1157C10.957 10.2379 10.8555 10.4243 10.8555 10.5725C10.8555 10.7206 10.957 10.9071 11.1581 11.0293Z" fill="currentColor"/>
        </svg>
        <svg id="inter-branch" width="19" height="16" viewBox="0 0 19 16" fill="none" xmlns="http://www.w3.org/2000/svg">
            <path d="M17.9999 6.86246C17.9915 4.2545 17.9094 2.8718 17.0183 1.98154C16.0376 1 14.4581 1 11.2999 1H7.94995C4.79176 1 3.21225 1 2.23154 1.98154C1.25 2.96225 1.25 4.54176 1.25 7.69995C1.25 10.8581 1.25 12.4377 2.23154 13.4184C3.21225 14.3999 4.79176 14.3999 7.94995 14.3999H9.20619" stroke="currentColor" stroke-width="1.4" stroke-linecap="round"/>
            <path fill-rule="evenodd" clip-rule="evenodd" d="M12.5566 8.6748C12.9432 8.6748 13.2566 8.98821 13.2566 9.3748V12.7098L13.7366 12.2298C14.01 11.9564 14.4532 11.9564 14.7266 12.2298C15 12.5032 15 12.9464 14.7266 13.2198L13.0516 14.8947C12.7782 15.1681 12.335 15.1681 12.0617 14.8947L10.3867 13.2198C10.1133 12.9464 10.1133 12.5032 10.3867 12.2298C10.66 11.9564 11.1032 11.9564 11.3766 12.2298L11.8566 12.7098V9.3748C11.8566 8.98821 12.17 8.6748 12.5566 8.6748ZM15.8304 8.87983C16.1037 8.60646 16.547 8.60646 16.8203 8.87983L18.4953 10.5548C18.7687 10.8282 18.7687 11.2714 18.4953 11.5448C18.2219 11.8181 17.7787 11.8181 17.5054 11.5448L17.0254 11.0648V14.3998C17.0254 14.7864 16.712 15.0998 16.3254 15.0998C15.9388 15.0998 15.6254 14.7864 15.6254 14.3998V11.0648L15.1453 11.5448C14.872 11.8181 14.4288 11.8181 14.1554 11.5448C13.882 11.2714 13.882 10.8282 14.1554 10.5548L15.8304 8.87983Z" fill="currentColor"/>
            <path fill-rule="evenodd" clip-rule="evenodd" d="M0.549805 6.02471C0.549805 5.63811 0.863205 5.32471 1.2498 5.32471H17.9997C18.3863 5.32471 18.6997 5.63811 18.6997 6.02471C18.6997 6.41131 18.3863 6.72471 17.9997 6.72471H1.2498C0.863205 6.72471 0.549805 6.41131 0.549805 6.02471ZM3.89978 11.0497C3.89978 10.6631 4.21318 10.3497 4.59978 10.3497H7.94976C8.33636 10.3497 8.64976 10.6631 8.64976 11.0497C8.64976 11.4363 8.33636 11.7497 7.94976 11.7497H4.59978C4.21318 11.7497 3.89978 11.4363 3.89978 11.0497Z" fill="currentColor"/>
        </svg>
        <svg id="purchase-orders" width="17" height="17" viewBox="0 0 17 17" fill="none" xmlns="http://www.w3.org/2000/svg">
            <path d="M3.4085 12.0156L1.81985 1.70013H0.85C0.624566 1.70013 0.408365 1.61058 0.248959 1.45117C0.0895533 1.29177 0 1.07557 0 0.850137C0 0.624705 0.0895533 0.408506 0.248959 0.249101C0.408365 0.0896965 0.624566 0.000143928 0.85 0.000143928H2.53725C2.74231 -0.00364172 2.94173 0.0673635 3.09825 0.199892C3.2589 0.334987 3.3637 0.524897 3.39235 0.732838L3.67115 2.55012H9.47527C9.87553 2.55012 10.2 2.8746 10.2 3.27486C10.2 3.67511 9.87552 3.99959 9.47527 3.99959H3.68985L4.72222 11.3333H13.2222L14.4935 7.26533C14.58 6.98854 14.8363 6.80009 15.1263 6.80009C15.5704 6.80009 15.889 7.2282 15.7614 7.65359L14.4143 12.144C14.3618 12.3192 14.2542 12.4727 14.1076 12.5819C13.9609 12.6911 13.7829 12.75 13.6 12.75H4.2636C4.05273 12.7539 3.84805 12.6787 3.68985 12.5392C3.53567 12.4045 3.43629 12.2185 3.4085 12.0156ZM6.8 15.3C6.8 15.7509 6.62089 16.1833 6.30208 16.5021C5.98327 16.8209 5.55087 17 5.1 17C4.64913 17 4.21673 16.8209 3.89792 16.5021C3.57911 16.1833 3.4 15.7509 3.4 15.3C3.4 14.8491 3.57911 14.4168 3.89792 14.0979C4.21673 13.7791 4.64913 13.6 5.1 13.6C5.55087 13.6 5.98327 13.7791 6.30208 14.0979C6.62089 14.4168 6.8 14.8491 6.8 15.3ZM14.45 15.3C14.45 15.7509 14.2709 16.1833 13.9521 16.5021C13.6333 16.8209 13.2009 17 12.75 17C12.2991 17 11.8667 16.8209 11.5479 16.5021C11.2291 16.1833 11.05 15.7509 11.05 15.3C11.05 14.8491 11.2291 14.4168 11.5479 14.0979C11.8667 13.7791 12.2991 13.6 12.75 13.6C13.2009 13.6 13.6333 13.7791 13.9521 14.0979C14.2709 14.4168 14.45 14.8491 14.45 15.3ZM14.45 0.000143928C14.6754 0.000143928 14.8916 0.0896965 15.051 0.249101C15.2104 0.408506 15.3 0.624705 15.3 0.850137V1.70013H16.15C16.3754 1.70013 16.5916 1.78968 16.751 1.94909C16.9104 2.10849 17 2.32469 17 2.55012C17 2.77555 16.9104 2.99175 16.751 3.15116C16.5916 3.31056 16.3754 3.40011 16.15 3.40011H15.3V4.25011C15.3 4.47554 15.2104 4.69174 15.051 4.85114C14.8916 5.01055 14.6754 5.1001 14.45 5.1001C14.2246 5.1001 14.0084 5.01055 13.849 4.85114C13.6896 4.69174 13.6 4.47554 13.6 4.25011V3.40011H12.75C12.5246 3.40011 12.3084 3.31056 12.149 3.15116C11.9896 2.99175 11.9 2.77555 11.9 2.55012C11.9 2.32469 11.9896 2.10849 12.149 1.94909C12.3084 1.78968 12.5246 1.70013 12.75 1.70013H13.6V0.850137C13.6 0.624705 13.6896 0.408506 13.849 0.249101C14.0084 0.0896965 14.2246 0.000143928 14.45 0.000143928Z" fill="currentColor"/>
        </svg>
        <svg id="dashboard-user-icon" width="67" height="67" viewBox="0 0 67 67" fill="none" xmlns="http://www.w3.org/2000/svg">
            <circle cx="34" cy="33" r="28" fill="white"/>
            <path d="M33.5 0C14.994 0 0 14.994 0 33.5C0 52.0061 14.994 67 33.5 67C52.0061 67 67 52.0061 67 33.5C67 14.994 52.0061 0 33.5 0ZM33.5 12.9677C40.0649 12.9677 45.3871 18.2899 45.3871 24.8548C45.3871 31.4198 40.0649 36.7419 33.5 36.7419C26.9351 36.7419 21.6129 31.4198 21.6129 24.8548C21.6129 18.2899 26.9351 12.9677 33.5 12.9677ZM33.5 59.4355C25.5708 59.4355 18.4655 55.8423 13.7107 50.223C16.2502 45.4411 21.2212 42.1452 27.0161 42.1452C27.3403 42.1452 27.6645 42.1992 27.9752 42.2938C29.7313 42.8611 31.5683 43.2258 33.5 43.2258C35.4317 43.2258 37.2823 42.8611 39.0248 42.2938C39.3355 42.1992 39.6597 42.1452 39.9839 42.1452C45.7788 42.1452 50.7498 45.4411 53.2893 50.223C48.5345 55.8423 41.4292 59.4355 33.5 59.4355Z" fill="#0071BC"/>
        </svg>
        <svg id="edit-button-icon" width="18" height="18" viewBox="0 0 18 18" fill="none" xmlns="http://www.w3.org/2000/svg">
            <path fill-rule="evenodd" clip-rule="evenodd" d="M13.8061 0.430599C14.0937 0.311369 14.402 0.25 14.7134 0.25C15.0248 0.25 15.3331 0.311369 15.6207 0.430599C15.9082 0.549781 16.1695 0.72444 16.3895 0.944598L17.057 1.61208C17.277 1.83212 17.4516 2.09336 17.5708 2.38088C17.6899 2.6684 17.7512 2.97657 17.7512 3.28778C17.7512 3.599 17.6899 3.90717 17.5708 4.19469C17.4516 4.48221 17.277 4.74345 17.057 4.96349L10.3017 11.7223C9.85704 12.167 9.25368 12.4167 8.6255 12.4167H6.33398C5.91977 12.4167 5.58398 12.081 5.58398 11.6667V9.38945C5.58402 8.76143 5.83328 8.15905 6.27704 7.71464L13.0369 0.944981C13.257 0.724697 13.5184 0.549829 13.8061 0.430599ZM14.7134 1.75C14.5991 1.75 14.486 1.77252 14.3804 1.81627C14.2749 1.86 14.1791 1.92409 14.0983 2.00487M14.0983 2.00487L7.33847 8.77452C7.33847 8.77453 7.33847 8.77452 7.33847 8.77452C7.17554 8.9377 7.08401 9.15886 7.08398 9.38945C7.08398 9.38944 7.08398 9.38947 7.08398 9.38945V10.9167H8.6255C8.85597 10.9167 9.07763 10.8251 9.24093 10.6618L15.9962 3.90291C16.077 3.82216 16.1413 3.72609 16.185 3.62058C16.2287 3.51507 16.2512 3.40199 16.2512 3.28778C16.2512 3.17358 16.2287 3.06049 16.185 2.95498C16.1413 2.84948 16.0772 2.75361 15.9964 2.67286L15.3288 2.00526C15.2481 1.92442 15.1519 1.86003 15.0463 1.81627C14.9408 1.77252 14.8277 1.75 14.7134 1.75" fill="currentColor"/>
            <path fill-rule="evenodd" clip-rule="evenodd" d="M4.71097 1.89024C3.70478 2.02551 3.12503 2.27919 2.70187 2.70235C2.27867 3.12555 2.02501 3.70512 1.88975 4.71114C1.75159 5.73875 1.75 7.0934 1.75 9.00035C1.75 10.9068 1.75159 12.2615 1.88976 13.2892C2.02502 14.2954 2.2787 14.8752 2.70187 15.2983C3.12507 15.7215 3.70463 15.9752 4.71065 16.1104C5.73826 16.2486 7.09291 16.2502 8.99986 16.2502C10.9064 16.2502 12.261 16.2486 13.2887 16.1104C14.2949 15.9752 14.8747 15.7215 15.2979 15.2983C15.7211 14.8751 15.9747 14.2956 16.11 13.2896C16.2481 12.2619 16.2497 10.9073 16.2497 9.00035C16.2497 8.58613 16.5855 8.25035 16.9997 8.25035C17.4139 8.25035 17.7497 8.58613 17.7497 9.00035V9.05676C17.7497 10.8946 17.7497 12.3503 17.5966 13.4894C17.439 14.6618 17.1068 15.6107 16.3585 16.359C15.6101 17.1074 14.661 17.4395 13.4886 17.5971C12.3493 17.7502 10.8937 17.7502 9.05626 17.7502H8.94344C7.10556 17.7502 5.64994 17.7502 4.51078 17.5971C3.33839 17.4394 2.38954 17.1073 1.64121 16.359C0.892836 15.6106 0.560745 14.6615 0.403129 13.4891C0.249972 12.3498 0.249984 10.8942 0.25 9.05674V8.94392C0.249984 7.10604 0.249972 5.65043 0.403131 4.51126C0.560756 3.33888 0.89287 2.39003 1.64121 1.64169C2.38957 0.893324 3.33869 0.561234 4.51112 0.403618C5.65039 0.25046 7.106 0.250473 8.94346 0.250489L8.99986 0.250489C9.41407 0.250489 9.74986 0.586275 9.74986 1.00049C9.74986 1.4147 9.41407 1.75049 8.99986 1.75049C7.09336 1.75049 5.7387 1.75208 4.71097 1.89024Z" fill="currentColor"/>
        </svg>
        <svg id="access-button-icon" xmlns="http://www.w3.org/2000/svg" viewBox="0 0 122.88 65.06">
            <path d="M0.95,30.01c2.92-3.53,5.98-6.74,9.15-9.63C24.44,7.33,41.46,0.36,59.01,0.01c17.51-0.35,35.47,5.9,51.7,19.29 c3.88,3.2,7.63,6.77,11.24,10.74c1.16,1.28,1.22,3.17,0.23,4.51c-4.13,5.83-8.88,10.82-14.07,14.96 C95.12,59.88,79.34,64.98,63.35,65.06c-15.93,0.07-32.06-4.86-45.8-14.57c-6.14-4.34-11.81-9.63-16.78-15.85 C-0.34,33.24-0.23,31.27,0.95,30.01L0.95,30.01z M61.44,26.46c0.59,0,1.17,0.09,1.71,0.24c-0.46,0.5-0.73,1.17-0.73,1.9 c0,1.56,1.26,2.82,2.82,2.82c0.77,0,1.46-0.3,1.97-0.8c0.2,0.6,0.3,1.24,0.3,1.9c0,3.35-2.72,6.07-6.07,6.07 c-3.35,0-6.07-2.72-6.07-6.07C55.37,29.18,58.09,26.46,61.44,26.46L61.44,26.46z M61.44,10.82c5.99,0,11.42,2.43,15.35,6.36 c3.93,3.93,6.36,9.35,6.36,15.35c0,5.99-2.43,11.42-6.36,15.35c-3.93,3.93-9.35,6.36-15.35,6.36c-5.99,0-11.42-2.43-15.35-6.36 c-3.93-3.93-6.36-9.35-6.36-15.35c0-5.99,2.43-11.42,6.36-15.35C50.02,13.25,55.45,10.82,61.44,10.82L61.44,10.82z M71.89,22.08 c-2.67-2.67-6.37-4.33-10.45-4.33c-4.08,0-7.78,1.65-10.45,4.33c-2.67,2.67-4.33,6.37-4.33,10.45c0,4.08,1.65,7.78,4.33,10.45 c2.67,2.67,6.37,4.33,10.45,4.33c4.08,0,7.78-1.65,10.45-4.33c2.67-2.67,4.33-6.37,4.33-10.45C76.22,28.45,74.56,24.75,71.89,22.08 L71.89,22.08z M14.89,25.63c-2.32,2.11-4.56,4.39-6.7,6.82c4.07,4.72,8.6,8.8,13.45,12.23c12.54,8.85,27.21,13.35,41.69,13.29 c14.42-0.07,28.65-4.67,40.37-14.02c4-3.19,7.7-6.94,11.03-11.25c-2.79-2.91-5.63-5.54-8.51-7.92C91.33,12.51,75,6.79,59.15,7.1 C43.34,7.42,27.93,13.76,14.89,25.63L14.89,25.63z"/>
        </svg>

    </defs>
</svg>    