<svg width="14" height="14" viewBox="0 0 14 14" fill="none" xmlns="http://www.w3.org/2000/svg">
<path d="M8.077 5.13633C8.077 4.99352 8.02027 4.85656 7.91929 4.75558C7.81831 4.6546 7.68135 4.59787 7.53854 4.59787H3.23084C3.08804 4.59787 2.95108 4.6546 2.85009 4.75558C2.74911 4.85656 2.69238 4.99352 2.69238 5.13633C2.69238 5.27914 2.74911 5.4161 2.85009 5.51708C2.95108 5.61806 3.08804 5.67479 3.23084 5.67479H7.53854C7.68135 5.67479 7.81831 5.61806 7.91929 5.51708C8.02027 5.4161 8.077 5.27914 8.077 5.13633ZM7.35905 7.29018C7.35905 7.14737 7.30232 7.01041 7.20134 6.90943C7.10036 6.80845 6.9634 6.75172 6.82059 6.75172H3.23084C3.08804 6.75172 2.95108 6.80845 2.85009 6.90943C2.74911 7.01041 2.69238 7.14737 2.69238 7.29018C2.69238 7.43299 2.74911 7.56995 2.85009 7.67093C2.95108 7.77191 3.08804 7.82864 3.23084 7.82864H6.82059C6.9634 7.82864 7.10036 7.77191 7.20134 7.67093C7.30232 7.56995 7.35905 7.43299 7.35905 7.29018ZM7.53854 8.90556C7.68135 8.90556 7.81831 8.96229 7.91929 9.06327C8.02027 9.16426 8.077 9.30122 8.077 9.44402C8.077 9.58683 8.02027 9.72379 7.91929 9.82477C7.81831 9.92576 7.68135 9.98249 7.53854 9.98249H3.23084C3.08804 9.98249 2.95108 9.92576 2.85009 9.82477C2.74911 9.72379 2.69238 9.58683 2.69238 9.44402C2.69238 9.30122 2.74911 9.16426 2.85009 9.06327C2.95108 8.96229 3.08804 8.90556 3.23084 8.90556H7.53854Z" fill="white"/>
<path fill-rule="evenodd" clip-rule="evenodd" d="M2.69231 13.7517H12.0256C12.5493 13.7517 13.0515 13.5437 13.4217 13.1735C13.792 12.8032 14 12.301 14 11.7774V7.82867C14 7.68586 13.9433 7.5489 13.8423 7.44792C13.7413 7.34694 13.6043 7.29021 13.4615 7.29021H11.1282V1.68518C11.1282 0.663541 9.97303 0.0690794 9.14164 0.662823L9.016 0.752567C8.74087 0.947868 8.41171 1.05254 8.07431 1.05203C7.73691 1.05152 7.40807 0.945835 7.13354 0.749695C6.67522 0.423508 6.12665 0.24823 5.5641 0.24823C5.00156 0.24823 4.45299 0.423508 3.99467 0.749695C3.72014 0.945835 3.39129 1.05152 3.05389 1.05203C2.7165 1.05254 2.38733 0.947868 2.11221 0.752567L1.98656 0.662823C1.15518 0.0690794 0 0.662823 0 1.68518V11.0594C0 11.7735 0.283653 12.4583 0.788559 12.9632C1.29346 13.4681 1.97826 13.7517 2.69231 13.7517ZM4.62072 1.62559C4.89637 1.42991 5.22606 1.32479 5.5641 1.32479C5.90215 1.32479 6.23183 1.42991 6.50749 1.62559C6.96461 1.95234 7.5123 2.12831 8.07419 2.12895C8.63609 2.1296 9.18418 1.95489 9.64205 1.62918L9.76769 1.53944C9.79451 1.52035 9.82605 1.509 9.85888 1.50663C9.89171 1.50426 9.92456 1.51097 9.95384 1.52601C9.98311 1.54106 10.0077 1.56386 10.0249 1.59194C10.0421 1.62001 10.0512 1.65227 10.0513 1.68518V11.7774C10.0513 12.1005 10.1288 12.4056 10.2667 12.6748H2.69231C2.26388 12.6748 1.853 12.5046 1.55006 12.2017C1.24712 11.8987 1.07692 11.4879 1.07692 11.0594V1.68518C1.07701 1.65227 1.08614 1.62001 1.10333 1.59194C1.12052 1.56386 1.14509 1.54106 1.17437 1.52601C1.20364 1.51097 1.23649 1.50426 1.26932 1.50663C1.30215 1.509 1.3337 1.52035 1.36051 1.53944L1.48615 1.62918C1.94402 1.95489 2.49211 2.1296 3.05401 2.12895C3.61591 2.12831 4.1636 1.95234 4.62072 1.62559ZM11.1282 11.7774V8.36713H12.9231V11.7774C12.9231 12.0154 12.8285 12.2437 12.6602 12.412C12.4919 12.5803 12.2637 12.6748 12.0256 12.6748C11.7876 12.6748 11.5594 12.5803 11.3911 12.412C11.2228 12.2437 11.1282 12.0154 11.1282 11.7774Z" fill="white"/>
</svg>
