<svg width="24" height="22" viewBox="0 0 24 22" fill="none" xmlns="http://www.w3.org/2000/svg">
<path d="M22.999 16.3937C22.8257 16.498 22.6592 16.6192 22.4761 16.7019C22.3355 16.7657 22.2494 16.8349 22.2023 16.9966C22.134 17.2327 22.0313 17.4607 21.9216 17.6804C21.8642 17.7958 21.8539 17.8831 21.9067 18.0033C22.157 18.5734 22.215 18.5295 21.7179 19.0287C21.2449 19.5033 21.3063 19.5402 20.6566 19.2449C20.5865 19.2133 20.4792 19.2273 20.4023 19.2566C20.1486 19.3527 19.8966 19.457 19.6527 19.576C19.5683 19.617 19.4747 19.6978 19.442 19.7828C19.2147 20.3717 19.2589 20.3729 18.5879 20.3652C18.5667 20.3652 18.5448 20.3652 18.5236 20.3652C17.9313 20.3652 17.9272 20.367 17.7223 19.8074C17.673 19.6721 17.6024 19.6 17.4646 19.5543C17.2281 19.4758 17.0054 19.3545 16.7701 19.2719C16.6742 19.2379 16.5433 19.2185 16.4584 19.2584C15.831 19.556 15.8614 19.4611 15.466 19.0638C15.4556 19.0539 15.4459 19.0433 15.4355 19.0328C14.935 18.5341 14.989 18.5857 15.2392 17.9874C15.272 17.9095 15.2593 17.7947 15.2295 17.7109C15.1371 17.4513 15.0332 17.1952 14.9184 16.9445C14.8811 16.8636 14.8099 16.7728 14.733 16.7405C14.1136 16.4839 14.1435 16.5495 14.1481 15.8358C14.1481 15.8212 14.1481 15.8065 14.1481 15.7919C14.1481 15.1919 14.1469 15.1884 14.6951 14.978C14.8283 14.927 14.8943 14.852 14.9385 14.7102C15.0137 14.4682 15.1158 14.2333 15.2278 14.0059C15.2846 13.8899 15.2909 13.8026 15.2387 13.683C14.9953 13.127 14.9258 13.1627 15.4195 12.6758C15.4246 12.6705 15.4298 12.6652 15.4344 12.6606C15.8924 12.1977 15.8356 12.1484 16.4756 12.4414C16.5514 12.476 16.6668 12.4631 16.7494 12.432C16.9974 12.3406 17.2425 12.2387 17.4789 12.1215C17.5691 12.077 17.6701 11.9937 17.7057 11.9035C17.9358 11.3129 17.8916 11.324 18.5426 11.3293C18.5494 11.3293 18.5569 11.3293 18.5638 11.3293C19.2336 11.3299 19.2072 11.2754 19.4477 11.9281C19.4764 12.0066 19.5694 12.0787 19.6498 12.1168C19.8886 12.2305 20.1325 12.3354 20.381 12.4232C20.4763 12.4566 20.6078 12.4719 20.6939 12.4315C21.3098 12.1426 21.2771 12.2211 21.6846 12.6324C21.6949 12.643 21.7047 12.6529 21.715 12.6635C22.2201 13.1627 22.1553 13.1217 21.9067 13.6871C21.8533 13.8084 21.8665 13.8952 21.9216 14.01C22.0341 14.245 22.1134 14.4969 22.2259 14.7319C22.2701 14.8239 22.3544 14.9077 22.44 14.9651C22.6196 15.0864 22.8125 15.1872 22.9996 15.2968V16.3931L22.999 16.3937ZM21.3212 13.3069C21.3126 13.1598 21.0744 13.018 20.955 13.0924C20.6376 13.2899 20.3592 13.2658 20.0435 13.0526C19.818 12.9002 19.5338 12.8299 19.2681 12.7502C19.0798 12.694 18.9455 12.6055 18.8864 12.4104C18.8611 12.3272 18.8399 12.2363 18.7911 12.1678C18.7492 12.1086 18.6757 12.0553 18.6068 12.0365C18.4599 11.9967 18.3617 12.0623 18.3285 12.2217C18.2602 12.5492 18.0736 12.7256 17.7378 12.7906C17.4979 12.8369 17.2494 12.9383 17.0496 13.0807C16.7666 13.2817 16.5152 13.2811 16.2363 13.1088C16.1364 13.0473 16.0457 13.0168 15.9366 13.1328C15.8339 13.2418 15.8075 13.3274 15.8867 13.4528C16.0669 13.7405 16.0589 14.0071 15.8597 14.3001C15.7243 14.4987 15.6209 14.7436 15.5813 14.9815C15.5222 15.3372 15.3385 15.5247 15.0142 15.6015C14.8868 15.6319 14.8283 15.694 14.8306 15.8423C14.8328 15.9823 14.8702 16.0591 15.005 16.0895C15.3391 16.1651 15.5142 16.3649 15.5865 16.723C15.6445 17.0083 15.8 17.2773 15.9395 17.5386C16.0342 17.7156 16.0687 17.872 15.9705 18.0525C15.9292 18.1287 15.8844 18.2095 15.8712 18.2933C15.8603 18.3642 15.8735 18.4539 15.9097 18.5154C15.9837 18.642 16.0893 18.683 16.2282 18.5916C16.5095 18.4058 16.7712 18.4164 17.0599 18.6191C17.2608 18.7603 17.5082 18.8623 17.7487 18.908C18.0776 18.9707 18.2515 19.1459 18.3285 19.4617C18.3554 19.5719 18.3881 19.6773 18.5523 19.6715C18.6958 19.6662 18.7836 19.6346 18.8152 19.4851C18.8875 19.1394 19.0896 18.959 19.4391 18.8951C19.6653 18.8541 19.8989 18.755 20.0877 18.6209C20.3742 18.4175 20.6348 18.407 20.92 18.5886C21.0251 18.6554 21.114 18.6683 21.2168 18.5558C21.3086 18.455 21.3448 18.3736 21.2684 18.2546C21.0733 17.9511 21.0939 17.6716 21.3046 17.3693C21.4338 17.1841 21.529 16.9509 21.5646 16.7271C21.6226 16.3655 21.8057 16.1657 22.1421 16.0907C22.2752 16.0608 22.3223 15.9882 22.3183 15.8458C22.3148 15.7181 22.2879 15.6372 22.1587 15.6097C21.8023 15.5347 21.6283 15.3155 21.5554 14.944C21.5021 14.6727 21.3563 14.4137 21.2179 14.1694C21.1089 13.9772 21.0859 13.8096 21.1904 13.6157C21.2449 13.5143 21.2828 13.403 21.3235 13.308L21.3212 13.3069Z" fill="#64748B" stroke="#64748B" stroke-width="0.4"/>
<path d="M3.47051 19.6695C3.39589 19.6243 3.29372 19.5863 3.22082 19.5154C2.95621 19.2587 2.70308 18.9898 2.44306 18.7284C2.30817 18.5925 2.28866 18.4413 2.36213 18.2685C2.47004 18.0147 2.66061 17.7587 2.65774 17.5055C2.65487 17.2624 2.43847 17.0268 2.33745 16.779C2.23643 16.5305 2.16984 16.2674 2.07054 16.0178C2.03782 15.9358 1.96435 15.8496 1.88744 15.8121C1.68826 15.7149 1.47761 15.6405 1.26982 15.5625C1.08557 15.494 0.998325 15.3656 1.00005 15.1641C1.00407 14.799 1.00349 14.4334 1.00005 14.0678C0.997751 13.868 1.07926 13.7361 1.26638 13.667C1.46785 13.5931 1.66473 13.5058 1.86677 13.4332C1.98387 13.391 2.03897 13.3224 2.08432 13.197C2.24217 12.7605 2.41436 12.3281 2.6055 11.9062C2.66635 11.7714 2.68299 11.673 2.61813 11.5429C2.52457 11.3542 2.44938 11.1568 2.36385 10.964C2.28349 10.7823 2.31219 10.6282 2.45339 10.487C2.70997 10.2321 2.96252 9.97313 3.21279 9.71238C3.35112 9.56824 3.50323 9.54363 3.68059 9.62625C3.88206 9.72059 4.08181 9.82078 4.29017 9.8952C4.37053 9.92391 4.48131 9.91395 4.56224 9.88172C5.00651 9.70418 5.44791 9.51785 5.88587 9.32448C5.96048 9.29167 6.03912 9.22194 6.07241 9.14928C6.16884 8.93834 6.24404 8.71685 6.32497 8.49829C6.39098 8.32016 6.51094 8.23168 6.70036 8.23344C7.06542 8.23696 7.43048 8.23754 7.79554 8.23344C7.99471 8.2311 8.11582 8.32485 8.18298 8.51294C8.25875 8.72564 8.33279 8.93951 8.42865 9.14284C8.46538 9.22077 8.55148 9.29226 8.63184 9.328C9.06291 9.51961 9.49685 9.70418 9.9348 9.87879C10.0215 9.91337 10.1397 9.92098 10.2264 9.89051C10.4347 9.81668 10.6334 9.71238 10.836 9.62097C11.0053 9.54422 11.1534 9.57175 11.2854 9.70887C11.5414 9.9743 11.7997 10.238 12.0597 10.4993C12.1946 10.6347 12.2153 10.7864 12.1418 10.9593C12.0339 11.2136 11.8416 11.4691 11.8445 11.7222C11.8473 11.9648 12.0643 12.2009 12.1653 12.4488C12.2669 12.6972 12.3335 12.9603 12.4322 13.2099C12.4644 13.2914 12.5384 13.3769 12.6148 13.4144C12.8139 13.5123 13.0235 13.5879 13.2312 13.6658C13.4155 13.7349 13.5045 13.8621 13.5027 14.0637C13.4993 14.4293 13.4987 14.7943 13.5027 15.16C13.505 15.3604 13.4224 15.4922 13.2381 15.5631C12.9913 15.6586 12.6854 15.6996 12.5172 15.8754C12.3507 16.0495 12.3341 16.367 12.2331 16.6137C12.1315 16.8622 11.996 17.0965 11.8967 17.3462C11.8594 17.4399 11.8519 17.5682 11.8829 17.6632C11.9501 17.87 12.0494 18.0657 12.1378 18.2655C12.2181 18.4466 12.1906 18.6013 12.0488 18.7425C11.7928 18.9974 11.5397 19.2564 11.2894 19.5177C11.1505 19.663 10.9984 19.6859 10.8216 19.6044C10.6133 19.5083 10.406 19.4075 10.192 19.3267C10.1236 19.3009 10.0272 19.3103 9.95719 19.3384C9.50029 19.523 9.04569 19.7134 8.59453 19.912C8.5268 19.9419 8.4585 20.0128 8.42807 20.082C8.33394 20.2947 8.25645 20.5144 8.17609 20.733C8.11008 20.9123 7.98725 21.0002 7.80013 20.9996C7.43507 20.999 7.07001 20.9984 6.70495 20.9996C6.51898 21.0002 6.39327 20.917 6.32554 20.7382C6.22796 20.4798 6.18606 20.1617 6.00927 19.9829C5.84052 19.8124 5.52597 19.7984 5.28317 19.6964C5.04554 19.5968 4.81135 19.4849 4.58922 19.3548C4.46696 19.2833 4.3711 19.281 4.25171 19.3419C4.07262 19.4327 3.88837 19.5124 3.70412 19.5933C3.63926 19.6214 3.56981 19.6384 3.46821 19.6724L3.47051 19.6695ZM6.89552 20.2794C7.35547 20.3298 7.66447 20.1455 7.82251 19.7263C7.83801 19.6853 7.85695 19.6454 7.86843 19.6038C7.92239 19.4052 8.06129 19.3302 8.24669 19.264C8.71679 19.097 9.19665 18.9364 9.63174 18.6968C9.92504 18.5356 10.15 18.5063 10.4451 18.6569C10.9376 18.9083 10.9427 18.889 11.3273 18.4917C11.41 18.4062 11.4346 18.3411 11.3772 18.228C11.2854 18.047 11.2165 17.8536 11.131 17.669C11.0564 17.5085 11.0667 17.3626 11.1626 17.2143C11.4857 16.7157 11.7027 16.1702 11.8232 15.586C11.8577 15.419 11.9466 15.3135 12.101 15.2555C12.3025 15.1799 12.5046 15.1061 12.7003 15.0176C12.7508 14.9947 12.8082 14.9215 12.8116 14.8682C12.8249 14.6654 12.8168 14.4615 12.8168 14.2529C12.5786 14.1592 12.3536 14.0654 12.1257 13.9816C11.9558 13.9189 11.8577 13.8094 11.8198 13.6236C11.7015 13.0464 11.4852 12.508 11.1654 12.0158C11.0638 11.8593 11.0593 11.707 11.1379 11.5406C11.2246 11.3566 11.3078 11.1702 11.3795 10.9798C11.4002 10.9241 11.4019 10.8321 11.3704 10.7894C11.03 10.3306 10.9852 10.3212 10.4703 10.5544C10.4118 10.5808 10.3504 10.6036 10.2941 10.6347C10.1036 10.7396 9.93193 10.7144 9.7517 10.5931C9.31834 10.3013 8.84709 10.0874 8.33681 9.98544C8.06703 9.93153 7.91894 9.79442 7.82653 9.52898C7.6044 8.89147 7.59349 8.89557 6.92823 8.94186C6.92135 8.94186 6.91446 8.94596 6.89437 8.9524C6.80942 9.17448 6.717 9.403 6.63492 9.63621C6.57408 9.81024 6.46847 9.91336 6.28709 9.95145C5.72113 10.0704 5.19421 10.2931 4.71148 10.6177C4.55765 10.7208 4.40898 10.7273 4.24597 10.6487C4.05885 10.5585 3.87001 10.4688 3.67657 10.3938C3.62549 10.3739 3.53594 10.3874 3.49462 10.4226C3.19576 10.6784 3.12516 10.9868 3.28281 11.3478C3.31209 11.4146 3.33792 11.4825 3.37006 11.5476C3.45329 11.7134 3.43779 11.8663 3.33677 12.0216C3.01763 12.5144 2.80238 13.0529 2.68471 13.6301C2.64855 13.8064 2.55499 13.9142 2.3937 13.9758C2.16008 14.0648 1.92819 14.1586 1.68884 14.2529C1.68884 14.4299 1.6986 14.5986 1.68597 14.765C1.67449 14.918 1.71754 15.0035 1.87022 15.0481C2.04127 15.0985 2.20199 15.184 2.37131 15.2414C2.55269 15.3035 2.63076 15.4289 2.69275 15.6123C2.85576 16.0922 3.01304 16.5821 3.24608 17.0274C3.40565 17.3321 3.44181 17.5677 3.2897 17.8788C3.03887 18.3915 3.05379 18.4032 3.47797 18.7847C3.52561 18.8275 3.63295 18.8427 3.69551 18.8204C3.88378 18.753 4.06631 18.6663 4.24597 18.5767C4.41013 18.4946 4.55765 18.5034 4.71033 18.6071C5.19248 18.9341 5.72056 19.1521 6.28536 19.2745C6.46732 19.3138 6.57293 19.4146 6.63378 19.5886C6.71528 19.8218 6.80827 20.0509 6.89494 20.2783L6.89552 20.2794Z" fill="#64748B" stroke="#64748B" stroke-width="0.4"/>
<path d="M12.5788 9.29854C12.7217 9.00146 12.5289 8.72782 12.2424 8.48055C12.1621 8.41082 12.0852 8.32293 12.041 8.22624C11.9124 7.94557 11.6897 7.88874 11.4136 7.88698C11.0227 7.88405 10.9848 7.84303 10.8666 7.47095C10.8 7.26294 10.7392 7.05317 10.6674 6.84691C10.6008 6.65648 10.6318 6.48421 10.8 6.38577C11.1576 6.176 11.2913 5.87892 11.2339 5.46641C11.2161 5.34043 11.2345 5.19746 11.277 5.07734C11.3591 4.84472 11.269 4.68827 11.1111 4.54061C11.0428 4.47674 10.9596 4.40935 10.9314 4.32615C10.8913 4.20544 10.8482 4.05075 10.8884 3.94352C10.9906 3.67281 11.1392 3.42027 11.2695 3.16011C11.3528 2.99311 11.4963 2.92338 11.6621 2.96908C12.0593 3.07749 12.3601 2.95561 12.6069 2.62923C12.6833 2.52845 12.7941 2.44114 12.9071 2.38431C13.1201 2.27649 13.1608 2.10656 13.1631 1.88507C13.1683 1.3794 13.1855 1.36709 13.6579 1.2124C13.8416 1.15205 14.027 1.09697 14.2084 1.03017C14.3806 0.966888 14.5401 1.00087 14.6245 1.15381C14.8415 1.54698 15.1618 1.66944 15.5819 1.61612C15.699 1.60147 15.8287 1.62257 15.9418 1.66007C16.1387 1.7257 16.2833 1.67413 16.4136 1.51885C16.4825 1.43624 16.5617 1.34424 16.6559 1.30674C16.7712 1.26045 16.9251 1.21826 17.0301 1.25986C17.2953 1.36416 17.5433 1.51475 17.797 1.64894C17.956 1.73331 18.0312 1.87336 17.9904 2.04855C17.902 2.42591 17.9583 2.73822 18.2883 2.98022C18.4002 3.06225 18.4926 3.19116 18.5569 3.31831C18.6602 3.52222 18.8106 3.59723 19.0242 3.58082C19.1022 3.57496 19.1814 3.58609 19.2601 3.58785C19.4558 3.59078 19.5832 3.68629 19.6429 3.87672C19.7233 4.13396 19.8042 4.3906 19.8857 4.64725C19.9431 4.8289 19.9098 4.99589 19.7485 5.08964C19.3898 5.29766 19.2583 5.60059 19.3117 6.009C19.3249 6.10803 19.3192 6.21995 19.2859 6.31253C19.1826 6.60081 19.2928 6.80004 19.4902 7.00102C19.7675 7.28345 19.764 7.35318 19.5838 7.71178C19.4891 7.89987 19.3932 8.08737 19.3008 8.27722C19.2147 8.45477 19.077 8.56024 18.8864 8.5075C18.499 8.40086 18.1982 8.50399 17.96 8.83212C17.906 8.90595 17.8268 8.97216 17.7453 9.01142C17.4474 9.15674 17.3716 9.40284 17.3745 9.71984C17.3774 10.0708 17.3217 10.1224 16.9939 10.2314C16.7833 10.3011 16.5698 10.3632 16.3614 10.4394C16.1743 10.5074 16.0032 10.4769 15.9085 10.3058C15.6996 9.92726 15.3896 9.8089 14.9878 9.85988C14.9046 9.87043 14.8099 9.86632 14.733 9.83585C14.4351 9.71984 14.2279 9.83996 14.0207 10.055C13.7618 10.3228 13.6872 10.3187 13.36 10.1482C13.1758 10.0521 12.9938 9.94953 12.8061 9.85988C12.6127 9.7673 12.5203 9.62491 12.5782 9.29736L12.5788 9.29854ZM13.294 8.92821C13.29 8.99443 13.2917 9.02431 13.2854 9.05244C13.2515 9.21357 13.267 9.32608 13.4438 9.4169C13.6223 9.50831 13.7044 9.42159 13.8071 9.31787C13.8479 9.27686 13.8955 9.24287 13.9351 9.20068C14.0769 9.05009 14.233 9.02372 14.4403 9.06005C14.7898 9.12158 15.1491 9.16201 15.5033 9.15381C15.7696 9.14736 15.9625 9.20947 16.1014 9.44034C16.1312 9.48956 16.1795 9.52764 16.2082 9.57745C16.2793 9.70284 16.3694 9.71222 16.4957 9.66241C16.6134 9.61612 16.7288 9.59151 16.7156 9.42217C16.7087 9.33545 16.7288 9.24697 16.7242 9.15967C16.7127 8.93642 16.8217 8.80458 16.998 8.68094C17.2614 8.49578 17.5398 8.30711 17.739 8.05866C17.9686 7.77155 18.22 7.69068 18.5449 7.77448C18.7159 7.81901 18.7997 7.76041 18.8743 7.60279C18.9386 7.46685 18.9346 7.37486 18.8215 7.28169C18.5357 7.04555 18.4519 6.76664 18.5673 6.39163C18.6402 6.15432 18.6637 5.87892 18.6275 5.63341C18.5713 5.25313 18.6912 4.99824 19.0012 4.80897C19.1085 4.74335 19.1843 4.6701 19.128 4.51072C19.0741 4.35896 19.0247 4.2447 18.8393 4.26873C18.7768 4.27693 18.7108 4.25115 18.647 4.25584C18.4117 4.27283 18.2734 4.15505 18.1437 3.95934C17.9651 3.68922 17.7729 3.41148 17.5301 3.2064C17.2643 2.9808 17.1925 2.74115 17.2626 2.42005C17.2896 2.29583 17.3205 2.17746 17.1547 2.09074C16.9888 2.00402 16.8711 1.99641 16.7483 2.14817C16.6851 2.2261 16.6099 2.30462 16.5233 2.34915C16.4268 2.39837 16.3 2.45403 16.2064 2.42884C15.7708 2.31165 15.3317 2.29993 14.8857 2.31282C14.7749 2.31575 14.6503 2.23489 14.5528 2.16282C14.469 2.1007 14.4052 2.00285 14.349 1.91086C14.2692 1.7796 14.1797 1.77609 14.0425 1.81769C13.8973 1.86222 13.8203 1.92199 13.8358 2.08547C13.8427 2.15696 13.8181 2.23137 13.8221 2.30344C13.8347 2.54427 13.717 2.68314 13.5236 2.81264C13.2687 2.98373 13.003 3.16889 12.817 3.40913C12.5863 3.70738 12.328 3.78532 11.9939 3.70621C11.8527 3.67281 11.7614 3.68922 11.6885 3.84625C11.6208 3.99216 11.6024 4.09353 11.731 4.20603C11.812 4.27693 11.8975 4.35662 11.9422 4.45154C11.9945 4.56229 12.0329 4.69589 12.0266 4.81659C12.0037 5.25137 11.9687 5.68614 11.9176 6.11858C11.9026 6.24397 11.8349 6.37171 11.7643 6.47894C11.7109 6.5598 11.6168 6.61546 11.5347 6.67406C11.4245 6.75258 11.3746 6.82816 11.4262 6.98285C11.4773 7.13579 11.537 7.2231 11.7035 7.21196C11.7746 7.20727 11.847 7.22602 11.9176 7.22192C12.1351 7.20845 12.266 7.31626 12.3894 7.49615C12.5857 7.78092 12.7969 8.06335 13.0443 8.30066C13.2469 8.4952 13.3795 8.67625 13.294 8.92821Z" fill="#64748B" stroke="#64748B" stroke-width="0.4"/>
<path d="M18.5702 13.7437C19.7085 13.7414 20.6343 14.683 20.6354 15.8444C20.6366 17.0046 19.7119 17.9503 18.5754 17.9526C17.4406 17.955 16.5113 17.0087 16.5107 15.8491C16.5096 14.6865 17.4297 13.7455 18.5702 13.7432V13.7437ZM18.5702 14.4457C17.8074 14.4469 17.1949 15.0762 17.1978 15.8549C17.2007 16.6202 17.8114 17.2442 18.5645 17.2507C19.321 17.2571 19.9467 16.6237 19.9478 15.8497C19.949 15.0721 19.3325 14.444 18.5702 14.4457Z" fill="#64748B" stroke="#64748B" stroke-width="0.4"/>
<path d="M7.27953 11.7221C8.85801 11.7484 10.1076 13.0551 10.0818 14.6524C10.0559 16.2614 8.77823 17.5265 7.20319 17.5013C5.64308 17.4767 4.39867 16.1677 4.4222 14.5751C4.44574 12.9819 5.7332 11.6963 7.27896 11.7221H7.27953ZM9.39412 14.6208C9.39929 13.4131 8.44531 12.4316 7.25944 12.4246C6.07989 12.4176 5.11616 13.3961 5.11099 14.6067C5.10583 15.8179 6.05693 16.7952 7.24509 16.7993C8.43268 16.8034 9.38895 15.8337 9.39412 14.6214V14.6208Z" fill="#64748B" stroke="#64748B" stroke-width="0.4"/>
<path d="M17.4584 5.74863C17.4544 6.97971 16.4735 7.9729 15.2635 7.97114C14.065 7.96938 13.0749 6.951 13.084 5.7287C13.0927 4.50231 14.0862 3.4974 15.283 3.50443C16.4872 3.51146 17.4625 4.51754 17.4584 5.74863ZM16.7708 5.73691C16.7691 4.89079 16.0952 4.20523 15.2658 4.2064C14.4553 4.20757 13.7769 4.89958 13.7717 5.73046C13.7665 6.57013 14.4473 7.26976 15.2704 7.26976C16.0998 7.26976 16.7725 6.58302 16.7708 5.73632V5.73691Z" fill="#64748B" stroke="#64748B" stroke-width="0.4"/>
</svg>
