<svg width="15" height="18" viewBox="0 0 15 18" fill="none" xmlns="http://www.w3.org/2000/svg">
<path d="M10.1001 7.4C10.1001 8.07895 9.82622 8.7301 9.33862 9.21019C8.85103 9.69028 8.18971 9.96 7.50015 9.96C6.81058 9.96 6.14926 9.69028 5.66167 9.21019C5.17407 8.7301 4.90015 8.07895 4.90015 7.4C4.90015 6.72104 5.17407 6.0699 5.66167 5.5898C6.14926 5.10971 6.81058 4.84 7.50015 4.84C8.18971 4.84 8.85103 5.10971 9.33862 5.5898C9.82622 6.0699 10.1001 6.72104 10.1001 7.4Z" stroke="#002A46" stroke-linecap="round" stroke-linejoin="round"/>
<path d="M14 7.4C14 13.4945 7.5 17 7.5 17C7.5 17 1 13.4945 1 7.4C1 5.70261 1.68482 4.07475 2.90381 2.87452C4.12279 1.67428 5.77609 1 7.5 1C9.22391 1 10.8772 1.67428 12.0962 2.87452C13.3152 4.07475 14 5.70261 14 7.4Z" stroke="#002A46" stroke-linecap="round" stroke-linejoin="round"/>
</svg>
