<svg width="23" height="23" viewBox="0 0 23 23" fill="none" xmlns="http://www.w3.org/2000/svg">
<mask id="path-1-outside-1_524_2584" maskUnits="userSpaceOnUse" x="0" y="0" width="23" height="23" fill="black">
<rect fill="white" width="23" height="23"/>
<path d="M12.6581 1C12.7195 1 12.8394 1.25032 12.8975 1.38945C13.0597 1.77999 13.2092 2.17601 13.3539 2.57312C13.3977 2.69308 13.4574 2.75826 13.5889 2.78839C14.5284 3.0042 15.4033 3.37776 16.2267 3.87785C16.2924 3.91784 16.4102 3.92222 16.482 3.89209C16.9164 3.71024 17.3464 3.51908 17.7732 3.3197C17.9693 3.22823 18.1216 3.25726 18.2712 3.40898C18.7127 3.85704 19.1576 4.30126 19.6046 4.74329C19.7498 4.8868 19.7805 5.03524 19.6934 5.22366C19.4961 5.6509 19.3121 6.08472 19.1165 6.51305C19.0705 6.61439 19.0628 6.69162 19.1269 6.79405C19.6391 7.61019 20.0056 8.48877 20.2209 9.4287C20.2494 9.55304 20.314 9.60836 20.4247 9.64999C20.8591 9.81212 21.2903 9.98466 21.7247 10.1462C21.9247 10.2202 22.0129 10.3495 22.0107 10.5647C22.0041 11.1864 22.0036 11.8087 22.0107 12.4303C22.0134 12.656 21.9181 12.7869 21.7083 12.8576C21.5215 12.9206 21.3401 13 21.155 13.0723C22.7946 15.8466 21.8228 18.7639 20.2894 20.2938C18.7807 21.7995 15.8651 22.7909 13.0821 21.145C13.0098 21.3301 12.9304 21.5114 12.8674 21.6982C12.7967 21.908 12.6663 22.0033 12.4406 22.0005C11.8188 21.9934 11.1965 21.994 10.5747 22.0005C10.3594 22.0027 10.2307 21.9151 10.1562 21.7152C9.99511 21.2803 9.82254 20.8492 9.66038 20.4148C9.61875 20.3036 9.56287 20.239 9.43906 20.2105C8.50008 19.9947 7.62081 19.6288 6.80454 19.1167C6.7021 19.0526 6.62485 19.0602 6.5235 19.1063C6.0951 19.3018 5.66177 19.4864 5.23446 19.6836C5.04655 19.7701 4.89754 19.7406 4.75401 19.5949C4.31246 19.1473 3.86817 18.702 3.42004 18.2611C3.26775 18.1116 3.23816 17.9598 3.32965 17.7637C3.52303 17.3496 3.69779 16.9268 3.89063 16.5121C3.94815 16.3889 3.94979 16.2963 3.87529 16.1764C3.37567 15.3772 3.01629 14.5178 2.80538 13.5981C2.77525 13.4656 2.71718 13.39 2.5835 13.3423C2.18523 13.2005 1.7897 13.0493 1.39909 12.8872C1.25995 12.8297 1.03131 12.6985 1.00959 12.6478C0.987865 12.5971 1.00989 10.6441 1.00959 10.3511C1.00952 10.2895 1.2468 10.1731 1.37937 10.1183C1.78258 9.9518 2.19181 9.79898 2.60158 9.64944C2.71772 9.60727 2.77196 9.54044 2.7988 9.42213C3.0141 8.48275 3.38662 7.60854 3.88679 6.78528C3.92679 6.71955 3.93226 6.60179 3.90213 6.53003C3.7208 6.09567 3.53016 5.66514 3.33129 5.239C3.24035 5.04455 3.26391 4.89228 3.4173 4.74165C3.86543 4.30126 4.30972 3.85649 4.75072 3.40844C4.90138 3.25507 5.05367 3.23206 5.2487 3.32244C5.67491 3.52127 6.10551 3.71134 6.53994 3.89264C6.61225 3.92277 6.73004 3.91948 6.79523 3.8795C7.61752 3.37831 8.49241 3.00639 9.43139 2.79167C9.54972 2.76484 9.61601 2.70896 9.65874 2.59339C9.80611 2.1897 9.95731 1.78766 10.1217 1.39054C10.1803 1.25032 10.2949 0.999865 10.3616 1C10.5146 1.00031 12.5146 1 12.6581 1ZM11.5126 21.3416H11.8199C12.3042 21.3416 12.2987 21.3394 12.4751 20.8979C12.525 20.7725 12.4998 20.709 12.4012 20.6263C11.4365 19.8145 10.7845 18.8001 10.4882 17.5737C10.4279 17.3255 10.326 17.2286 10.0822 17.1672C6.95793 16.3796 5.08052 13.2711 5.81735 10.1271C6.52077 7.12324 9.55849 5.13383 12.5825 5.75662C15.0434 6.26328 16.5811 7.78766 17.2166 10.218C17.2462 10.3314 17.2791 10.4048 17.4138 10.4338C18.6108 10.6934 19.621 11.285 20.4554 12.1795C20.7786 12.5262 20.7797 12.5317 21.218 12.3356C21.2782 12.3087 21.3445 12.2145 21.3462 12.1499C21.3577 11.7199 21.3473 11.2888 21.3549 10.8583C21.3571 10.7422 21.3177 10.6896 21.2119 10.6507C20.7896 10.4946 20.3721 10.3259 19.9492 10.1709C19.7706 10.1057 19.6703 9.99233 19.6331 9.80665C19.4277 8.78401 19.0338 7.8375 18.4602 6.96768C18.3457 6.79405 18.3369 6.63794 18.4251 6.45116C18.6147 6.05021 18.7851 5.6405 18.9702 5.23735C19.0173 5.13547 19.0086 5.07084 18.9247 4.98977C18.6147 4.69125 18.3178 4.37904 18.0055 4.08271C17.9589 4.03834 17.8444 4.01753 17.7847 4.04218C17.3815 4.20924 16.9794 4.38123 16.5872 4.57239C16.3691 4.67866 16.1949 4.65182 15.9977 4.522C15.1447 3.96056 14.2145 3.57933 13.2131 3.37831C13.018 3.33942 12.9019 3.23644 12.834 3.05131C12.6822 2.63502 12.5151 2.22366 12.3634 1.80683C12.3217 1.69235 12.2648 1.65127 12.1415 1.65346C11.718 1.66168 11.294 1.66113 10.8705 1.65346C10.7555 1.65127 10.7013 1.68906 10.6618 1.79533C10.5062 2.21764 10.3375 2.63557 10.1825 3.05788C10.1173 3.2359 10.005 3.33723 9.81871 3.37502C8.79043 3.58371 7.83775 3.97919 6.96286 4.5587C6.80454 4.66332 6.65498 4.67154 6.48187 4.59102C6.07374 4.40095 5.65903 4.22458 5.2498 4.0367C5.14845 3.99014 5.08271 3.99726 5.00163 4.08161C4.70799 4.38671 4.40723 4.68578 4.10319 4.98046C4.01663 5.06427 3.998 5.13164 4.05114 5.24502C4.23576 5.6405 4.40011 6.04583 4.58911 6.43911C4.68663 6.64232 4.66581 6.80664 4.54419 6.99178C3.97883 7.85065 3.59316 8.7862 3.38936 9.79405C3.34992 9.9885 3.24857 10.1057 3.06286 10.1736C2.64651 10.3254 2.23508 10.4924 1.81873 10.6441C1.70478 10.6858 1.66205 10.7416 1.66479 10.866C1.67301 11.2828 1.67356 11.6997 1.66479 12.1165C1.66205 12.2469 1.70314 12.3098 1.82531 12.3542C2.24221 12.5059 2.65308 12.673 3.06943 12.8253C3.24748 12.8905 3.34937 13.0022 3.38662 13.1884C3.5937 14.2176 3.99088 15.1696 4.56939 16.0449C4.67457 16.2038 4.68389 16.3527 4.60336 16.5253C4.41326 16.9334 4.23795 17.3485 4.05005 17.7577C4.00403 17.8585 4.00896 17.9242 4.09387 18.0058C4.39902 18.2994 4.69813 18.5996 4.99287 18.9041C5.07668 18.9907 5.14407 19.0093 5.25692 18.9562C5.64588 18.7738 6.04525 18.6122 6.43202 18.4254C6.63964 18.3252 6.80947 18.3345 7.00395 18.4627C7.86186 19.029 8.79865 19.413 9.80611 19.6179C10.0006 19.6573 10.1178 19.7586 10.1858 19.9443C10.3402 20.3672 10.5013 20.7878 10.6728 21.2041C10.6974 21.2644 10.7911 21.329 10.8574 21.3339C11.0749 21.3504 11.2946 21.34 11.5131 21.34L11.5126 21.3416ZM16.1549 10.9487C13.2903 10.9487 10.9702 13.264 10.9593 16.1331C10.9483 18.9978 13.2854 21.3411 16.1538 21.3416C19.0212 21.3416 21.3566 19.0027 21.3522 16.1342C21.3478 13.2744 19.0168 10.9487 16.1549 10.9487ZM16.5444 10.3002C16.1971 8.44495 14.2644 6.22439 11.3581 6.30655C8.56417 6.38543 6.34436 8.64105 6.31478 11.434C6.28355 14.3688 8.55541 16.2169 10.3112 16.5324C10.229 14.7818 10.7763 13.2591 12.0155 12.0168C13.2596 10.7696 14.787 10.2191 16.5444 10.3002Z"/>
</mask>
<path d="M12.6581 1C12.7195 1 12.8394 1.25032 12.8975 1.38945C13.0597 1.77999 13.2092 2.17601 13.3539 2.57312C13.3977 2.69308 13.4574 2.75826 13.5889 2.78839C14.5284 3.0042 15.4033 3.37776 16.2267 3.87785C16.2924 3.91784 16.4102 3.92222 16.482 3.89209C16.9164 3.71024 17.3464 3.51908 17.7732 3.3197C17.9693 3.22823 18.1216 3.25726 18.2712 3.40898C18.7127 3.85704 19.1576 4.30126 19.6046 4.74329C19.7498 4.8868 19.7805 5.03524 19.6934 5.22366C19.4961 5.6509 19.3121 6.08472 19.1165 6.51305C19.0705 6.61439 19.0628 6.69162 19.1269 6.79405C19.6391 7.61019 20.0056 8.48877 20.2209 9.4287C20.2494 9.55304 20.314 9.60836 20.4247 9.64999C20.8591 9.81212 21.2903 9.98466 21.7247 10.1462C21.9247 10.2202 22.0129 10.3495 22.0107 10.5647C22.0041 11.1864 22.0036 11.8087 22.0107 12.4303C22.0134 12.656 21.9181 12.7869 21.7083 12.8576C21.5215 12.9206 21.3401 13 21.155 13.0723C22.7946 15.8466 21.8228 18.7639 20.2894 20.2938C18.7807 21.7995 15.8651 22.7909 13.0821 21.145C13.0098 21.3301 12.9304 21.5114 12.8674 21.6982C12.7967 21.908 12.6663 22.0033 12.4406 22.0005C11.8188 21.9934 11.1965 21.994 10.5747 22.0005C10.3594 22.0027 10.2307 21.9151 10.1562 21.7152C9.99511 21.2803 9.82254 20.8492 9.66038 20.4148C9.61875 20.3036 9.56287 20.239 9.43906 20.2105C8.50008 19.9947 7.62081 19.6288 6.80454 19.1167C6.7021 19.0526 6.62485 19.0602 6.5235 19.1063C6.0951 19.3018 5.66177 19.4864 5.23446 19.6836C5.04655 19.7701 4.89754 19.7406 4.75401 19.5949C4.31246 19.1473 3.86817 18.702 3.42004 18.2611C3.26775 18.1116 3.23816 17.9598 3.32965 17.7637C3.52303 17.3496 3.69779 16.9268 3.89063 16.5121C3.94815 16.3889 3.94979 16.2963 3.87529 16.1764C3.37567 15.3772 3.01629 14.5178 2.80538 13.5981C2.77525 13.4656 2.71718 13.39 2.5835 13.3423C2.18523 13.2005 1.7897 13.0493 1.39909 12.8872C1.25995 12.8297 1.03131 12.6985 1.00959 12.6478C0.987865 12.5971 1.00989 10.6441 1.00959 10.3511C1.00952 10.2895 1.2468 10.1731 1.37937 10.1183C1.78258 9.9518 2.19181 9.79898 2.60158 9.64944C2.71772 9.60727 2.77196 9.54044 2.7988 9.42213C3.0141 8.48275 3.38662 7.60854 3.88679 6.78528C3.92679 6.71955 3.93226 6.60179 3.90213 6.53003C3.7208 6.09567 3.53016 5.66514 3.33129 5.239C3.24035 5.04455 3.26391 4.89228 3.4173 4.74165C3.86543 4.30126 4.30972 3.85649 4.75072 3.40844C4.90138 3.25507 5.05367 3.23206 5.2487 3.32244C5.67491 3.52127 6.10551 3.71134 6.53994 3.89264C6.61225 3.92277 6.73004 3.91948 6.79523 3.8795C7.61752 3.37831 8.49241 3.00639 9.43139 2.79167C9.54972 2.76484 9.61601 2.70896 9.65874 2.59339C9.80611 2.1897 9.95731 1.78766 10.1217 1.39054C10.1803 1.25032 10.2949 0.999865 10.3616 1C10.5146 1.00031 12.5146 1 12.6581 1ZM11.5126 21.3416H11.8199C12.3042 21.3416 12.2987 21.3394 12.4751 20.8979C12.525 20.7725 12.4998 20.709 12.4012 20.6263C11.4365 19.8145 10.7845 18.8001 10.4882 17.5737C10.4279 17.3255 10.326 17.2286 10.0822 17.1672C6.95793 16.3796 5.08052 13.2711 5.81735 10.1271C6.52077 7.12324 9.55849 5.13383 12.5825 5.75662C15.0434 6.26328 16.5811 7.78766 17.2166 10.218C17.2462 10.3314 17.2791 10.4048 17.4138 10.4338C18.6108 10.6934 19.621 11.285 20.4554 12.1795C20.7786 12.5262 20.7797 12.5317 21.218 12.3356C21.2782 12.3087 21.3445 12.2145 21.3462 12.1499C21.3577 11.7199 21.3473 11.2888 21.3549 10.8583C21.3571 10.7422 21.3177 10.6896 21.2119 10.6507C20.7896 10.4946 20.3721 10.3259 19.9492 10.1709C19.7706 10.1057 19.6703 9.99233 19.6331 9.80665C19.4277 8.78401 19.0338 7.8375 18.4602 6.96768C18.3457 6.79405 18.3369 6.63794 18.4251 6.45116C18.6147 6.05021 18.7851 5.6405 18.9702 5.23735C19.0173 5.13547 19.0086 5.07084 18.9247 4.98977C18.6147 4.69125 18.3178 4.37904 18.0055 4.08271C17.9589 4.03834 17.8444 4.01753 17.7847 4.04218C17.3815 4.20924 16.9794 4.38123 16.5872 4.57239C16.3691 4.67866 16.1949 4.65182 15.9977 4.522C15.1447 3.96056 14.2145 3.57933 13.2131 3.37831C13.018 3.33942 12.9019 3.23644 12.834 3.05131C12.6822 2.63502 12.5151 2.22366 12.3634 1.80683C12.3217 1.69235 12.2648 1.65127 12.1415 1.65346C11.718 1.66168 11.294 1.66113 10.8705 1.65346C10.7555 1.65127 10.7013 1.68906 10.6618 1.79533C10.5062 2.21764 10.3375 2.63557 10.1825 3.05788C10.1173 3.2359 10.005 3.33723 9.81871 3.37502C8.79043 3.58371 7.83775 3.97919 6.96286 4.5587C6.80454 4.66332 6.65498 4.67154 6.48187 4.59102C6.07374 4.40095 5.65903 4.22458 5.2498 4.0367C5.14845 3.99014 5.08271 3.99726 5.00163 4.08161C4.70799 4.38671 4.40723 4.68578 4.10319 4.98046C4.01663 5.06427 3.998 5.13164 4.05114 5.24502C4.23576 5.6405 4.40011 6.04583 4.58911 6.43911C4.68663 6.64232 4.66581 6.80664 4.54419 6.99178C3.97883 7.85065 3.59316 8.7862 3.38936 9.79405C3.34992 9.9885 3.24857 10.1057 3.06286 10.1736C2.64651 10.3254 2.23508 10.4924 1.81873 10.6441C1.70478 10.6858 1.66205 10.7416 1.66479 10.866C1.67301 11.2828 1.67356 11.6997 1.66479 12.1165C1.66205 12.2469 1.70314 12.3098 1.82531 12.3542C2.24221 12.5059 2.65308 12.673 3.06943 12.8253C3.24748 12.8905 3.34937 13.0022 3.38662 13.1884C3.5937 14.2176 3.99088 15.1696 4.56939 16.0449C4.67457 16.2038 4.68389 16.3527 4.60336 16.5253C4.41326 16.9334 4.23795 17.3485 4.05005 17.7577C4.00403 17.8585 4.00896 17.9242 4.09387 18.0058C4.39902 18.2994 4.69813 18.5996 4.99287 18.9041C5.07668 18.9907 5.14407 19.0093 5.25692 18.9562C5.64588 18.7738 6.04525 18.6122 6.43202 18.4254C6.63964 18.3252 6.80947 18.3345 7.00395 18.4627C7.86186 19.029 8.79865 19.413 9.80611 19.6179C10.0006 19.6573 10.1178 19.7586 10.1858 19.9443C10.3402 20.3672 10.5013 20.7878 10.6728 21.2041C10.6974 21.2644 10.7911 21.329 10.8574 21.3339C11.0749 21.3504 11.2946 21.34 11.5131 21.34L11.5126 21.3416ZM16.1549 10.9487C13.2903 10.9487 10.9702 13.264 10.9593 16.1331C10.9483 18.9978 13.2854 21.3411 16.1538 21.3416C19.0212 21.3416 21.3566 19.0027 21.3522 16.1342C21.3478 13.2744 19.0168 10.9487 16.1549 10.9487ZM16.5444 10.3002C16.1971 8.44495 14.2644 6.22439 11.3581 6.30655C8.56417 6.38543 6.34436 8.64105 6.31478 11.434C6.28355 14.3688 8.55541 16.2169 10.3112 16.5324C10.229 14.7818 10.7763 13.2591 12.0155 12.0168C13.2596 10.7696 14.787 10.2191 16.5444 10.3002Z" fill="#64748B"/>
<path d="M12.6581 1C12.7195 1 12.8394 1.25032 12.8975 1.38945C13.0597 1.77999 13.2092 2.17601 13.3539 2.57312C13.3977 2.69308 13.4574 2.75826 13.5889 2.78839C14.5284 3.0042 15.4033 3.37776 16.2267 3.87785C16.2924 3.91784 16.4102 3.92222 16.482 3.89209C16.9164 3.71024 17.3464 3.51908 17.7732 3.3197C17.9693 3.22823 18.1216 3.25726 18.2712 3.40898C18.7127 3.85704 19.1576 4.30126 19.6046 4.74329C19.7498 4.8868 19.7805 5.03524 19.6934 5.22366C19.4961 5.6509 19.3121 6.08472 19.1165 6.51305C19.0705 6.61439 19.0628 6.69162 19.1269 6.79405C19.6391 7.61019 20.0056 8.48877 20.2209 9.4287C20.2494 9.55304 20.314 9.60836 20.4247 9.64999C20.8591 9.81212 21.2903 9.98466 21.7247 10.1462C21.9247 10.2202 22.0129 10.3495 22.0107 10.5647C22.0041 11.1864 22.0036 11.8087 22.0107 12.4303C22.0134 12.656 21.9181 12.7869 21.7083 12.8576C21.5215 12.9206 21.3401 13 21.155 13.0723C22.7946 15.8466 21.8228 18.7639 20.2894 20.2938C18.7807 21.7995 15.8651 22.7909 13.0821 21.145C13.0098 21.3301 12.9304 21.5114 12.8674 21.6982C12.7967 21.908 12.6663 22.0033 12.4406 22.0005C11.8188 21.9934 11.1965 21.994 10.5747 22.0005C10.3594 22.0027 10.2307 21.9151 10.1562 21.7152C9.99511 21.2803 9.82254 20.8492 9.66038 20.4148C9.61875 20.3036 9.56287 20.239 9.43906 20.2105C8.50008 19.9947 7.62081 19.6288 6.80454 19.1167C6.7021 19.0526 6.62485 19.0602 6.5235 19.1063C6.0951 19.3018 5.66177 19.4864 5.23446 19.6836C5.04655 19.7701 4.89754 19.7406 4.75401 19.5949C4.31246 19.1473 3.86817 18.702 3.42004 18.2611C3.26775 18.1116 3.23816 17.9598 3.32965 17.7637C3.52303 17.3496 3.69779 16.9268 3.89063 16.5121C3.94815 16.3889 3.94979 16.2963 3.87529 16.1764C3.37567 15.3772 3.01629 14.5178 2.80538 13.5981C2.77525 13.4656 2.71718 13.39 2.5835 13.3423C2.18523 13.2005 1.7897 13.0493 1.39909 12.8872C1.25995 12.8297 1.03131 12.6985 1.00959 12.6478C0.987865 12.5971 1.00989 10.6441 1.00959 10.3511C1.00952 10.2895 1.2468 10.1731 1.37937 10.1183C1.78258 9.9518 2.19181 9.79898 2.60158 9.64944C2.71772 9.60727 2.77196 9.54044 2.7988 9.42213C3.0141 8.48275 3.38662 7.60854 3.88679 6.78528C3.92679 6.71955 3.93226 6.60179 3.90213 6.53003C3.7208 6.09567 3.53016 5.66514 3.33129 5.239C3.24035 5.04455 3.26391 4.89228 3.4173 4.74165C3.86543 4.30126 4.30972 3.85649 4.75072 3.40844C4.90138 3.25507 5.05367 3.23206 5.2487 3.32244C5.67491 3.52127 6.10551 3.71134 6.53994 3.89264C6.61225 3.92277 6.73004 3.91948 6.79523 3.8795C7.61752 3.37831 8.49241 3.00639 9.43139 2.79167C9.54972 2.76484 9.61601 2.70896 9.65874 2.59339C9.80611 2.1897 9.95731 1.78766 10.1217 1.39054C10.1803 1.25032 10.2949 0.999865 10.3616 1C10.5146 1.00031 12.5146 1 12.6581 1ZM11.5126 21.3416H11.8199C12.3042 21.3416 12.2987 21.3394 12.4751 20.8979C12.525 20.7725 12.4998 20.709 12.4012 20.6263C11.4365 19.8145 10.7845 18.8001 10.4882 17.5737C10.4279 17.3255 10.326 17.2286 10.0822 17.1672C6.95793 16.3796 5.08052 13.2711 5.81735 10.1271C6.52077 7.12324 9.55849 5.13383 12.5825 5.75662C15.0434 6.26328 16.5811 7.78766 17.2166 10.218C17.2462 10.3314 17.2791 10.4048 17.4138 10.4338C18.6108 10.6934 19.621 11.285 20.4554 12.1795C20.7786 12.5262 20.7797 12.5317 21.218 12.3356C21.2782 12.3087 21.3445 12.2145 21.3462 12.1499C21.3577 11.7199 21.3473 11.2888 21.3549 10.8583C21.3571 10.7422 21.3177 10.6896 21.2119 10.6507C20.7896 10.4946 20.3721 10.3259 19.9492 10.1709C19.7706 10.1057 19.6703 9.99233 19.6331 9.80665C19.4277 8.78401 19.0338 7.8375 18.4602 6.96768C18.3457 6.79405 18.3369 6.63794 18.4251 6.45116C18.6147 6.05021 18.7851 5.6405 18.9702 5.23735C19.0173 5.13547 19.0086 5.07084 18.9247 4.98977C18.6147 4.69125 18.3178 4.37904 18.0055 4.08271C17.9589 4.03834 17.8444 4.01753 17.7847 4.04218C17.3815 4.20924 16.9794 4.38123 16.5872 4.57239C16.3691 4.67866 16.1949 4.65182 15.9977 4.522C15.1447 3.96056 14.2145 3.57933 13.2131 3.37831C13.018 3.33942 12.9019 3.23644 12.834 3.05131C12.6822 2.63502 12.5151 2.22366 12.3634 1.80683C12.3217 1.69235 12.2648 1.65127 12.1415 1.65346C11.718 1.66168 11.294 1.66113 10.8705 1.65346C10.7555 1.65127 10.7013 1.68906 10.6618 1.79533C10.5062 2.21764 10.3375 2.63557 10.1825 3.05788C10.1173 3.2359 10.005 3.33723 9.81871 3.37502C8.79043 3.58371 7.83775 3.97919 6.96286 4.5587C6.80454 4.66332 6.65498 4.67154 6.48187 4.59102C6.07374 4.40095 5.65903 4.22458 5.2498 4.0367C5.14845 3.99014 5.08271 3.99726 5.00163 4.08161C4.70799 4.38671 4.40723 4.68578 4.10319 4.98046C4.01663 5.06427 3.998 5.13164 4.05114 5.24502C4.23576 5.6405 4.40011 6.04583 4.58911 6.43911C4.68663 6.64232 4.66581 6.80664 4.54419 6.99178C3.97883 7.85065 3.59316 8.7862 3.38936 9.79405C3.34992 9.9885 3.24857 10.1057 3.06286 10.1736C2.64651 10.3254 2.23508 10.4924 1.81873 10.6441C1.70478 10.6858 1.66205 10.7416 1.66479 10.866C1.67301 11.2828 1.67356 11.6997 1.66479 12.1165C1.66205 12.2469 1.70314 12.3098 1.82531 12.3542C2.24221 12.5059 2.65308 12.673 3.06943 12.8253C3.24748 12.8905 3.34937 13.0022 3.38662 13.1884C3.5937 14.2176 3.99088 15.1696 4.56939 16.0449C4.67457 16.2038 4.68389 16.3527 4.60336 16.5253C4.41326 16.9334 4.23795 17.3485 4.05005 17.7577C4.00403 17.8585 4.00896 17.9242 4.09387 18.0058C4.39902 18.2994 4.69813 18.5996 4.99287 18.9041C5.07668 18.9907 5.14407 19.0093 5.25692 18.9562C5.64588 18.7738 6.04525 18.6122 6.43202 18.4254C6.63964 18.3252 6.80947 18.3345 7.00395 18.4627C7.86186 19.029 8.79865 19.413 9.80611 19.6179C10.0006 19.6573 10.1178 19.7586 10.1858 19.9443C10.3402 20.3672 10.5013 20.7878 10.6728 21.2041C10.6974 21.2644 10.7911 21.329 10.8574 21.3339C11.0749 21.3504 11.2946 21.34 11.5131 21.34L11.5126 21.3416ZM16.1549 10.9487C13.2903 10.9487 10.9702 13.264 10.9593 16.1331C10.9483 18.9978 13.2854 21.3411 16.1538 21.3416C19.0212 21.3416 21.3566 19.0027 21.3522 16.1342C21.3478 13.2744 19.0168 10.9487 16.1549 10.9487ZM16.5444 10.3002C16.1971 8.44495 14.2644 6.22439 11.3581 6.30655C8.56417 6.38543 6.34436 8.64105 6.31478 11.434C6.28355 14.3688 8.55541 16.2169 10.3112 16.5324C10.229 14.7818 10.7763 13.2591 12.0155 12.0168C13.2596 10.7696 14.787 10.2191 16.5444 10.3002Z" stroke="#64748B" stroke-width="0.6" mask="url(#path-1-outside-1_524_2584)"/>
<path d="M18.593 13.5901L18.5929 13.5901C17.2288 15.4925 15.863 17.3938 14.4961 19.2945C14.411 19.413 14.3024 19.5009 14.175 19.5345C14.0439 19.569 13.9124 19.5407 13.7991 19.4626C13.799 19.4625 13.7989 19.4625 13.7988 19.4624L13.884 19.3389C13.7159 19.2234 13.6989 19.0251 13.8473 18.8186C14.4704 17.9503 15.094 17.0822 15.7175 16.2142C16.4558 15.1865 17.194 14.1588 17.9314 13.1308L18.593 13.5901ZM18.593 13.5901C18.6 13.5803 18.6087 13.5698 18.6221 13.5536C18.625 13.5501 18.6281 13.5463 18.6315 13.5422C18.6485 13.5216 18.6701 13.4951 18.6901 13.465C18.73 13.4049 18.7728 13.3171 18.7622 13.2073C18.7499 13.0804 18.6785 12.9927 18.6066 12.9352C18.5386 12.8808 18.4592 12.8446 18.4078 12.8211L18.4062 12.8204C18.4061 12.8203 18.406 12.8203 18.4059 12.8202C18.2754 12.7602 18.1501 12.7695 18.0422 12.8256C17.943 12.8771 17.8671 12.9633 17.8096 13.0432L17.8095 13.0434C17.0721 14.0714 16.3339 15.099 15.5958 16.1266C14.9723 16.9946 14.3488 17.8626 13.7255 18.731M18.593 13.5901L13.7255 18.731M13.7255 18.731L13.8473 18.8186L13.7255 18.7311C13.7255 18.7311 13.7255 18.7311 13.7255 18.7311L13.7255 18.731Z" fill="#64748B" stroke="#64748B" stroke-width="0.3"/>
<path d="M15.1593 14.1519C15.1566 13.7937 14.8668 13.5034 14.5069 13.499L13.838 14.1519L13.8385 14.152L13.988 14.1528C13.9879 14.161 13.988 14.169 13.9884 14.1771M15.1593 14.1519L15.0093 14.1529C15.0093 14.1529 15.0093 14.1529 15.0093 14.153M15.1593 14.1519L15.0093 14.1531C15.0093 14.1531 15.0093 14.153 15.0093 14.153M15.1593 14.1519C15.1615 14.5146 14.8597 14.8196 14.4965 14.8196C14.1821 14.8201 13.9196 14.5988 13.8538 14.3019H13.9876L13.9884 14.1771M15.0093 14.153C15.0072 13.877 14.7837 13.6524 14.505 13.649L14.5049 13.649C14.2128 13.6452 13.9902 13.8637 13.9885 14.1528L13.9884 14.1771M15.0093 14.153C15.011 14.4327 14.7761 14.6696 14.4965 14.6696L14.4962 14.6696C14.2233 14.6701 13.9993 14.4529 13.9884 14.1771M14.4995 12.6923C13.6852 12.6905 13.0368 13.3331 13.0317 14.1473H13.0317C13.0274 14.9576 13.6737 15.6186 14.4815 15.6253C15.2867 15.632 15.9559 14.9797 15.9651 14.1767L15.9651 14.1766C15.9742 13.357 15.3196 12.6941 14.4995 12.6923Z" fill="#64748B" stroke="#64748B" stroke-width="0.3"/>
<path d="M16.3481 18.1271C16.3481 18.1272 16.3481 18.1273 16.3481 18.1274L16.3481 18.1271ZM16.3481 18.1271C16.3502 17.3162 17.0004 16.6663 17.8114 16.6645M16.3481 18.1271L17.8114 16.6645M17.8114 16.6645H17.8114C18.6286 16.6626 19.2927 17.3289 19.2842 18.1448C19.2842 18.1448 19.2842 18.1448 19.2842 18.1449L19.1342 18.1433L17.8114 16.6645ZM17.3046 18.1474L17.3049 18.1239C17.3087 17.8361 17.5367 17.6158 17.8256 17.6217L17.8287 17.4718M17.3046 18.1474L17.8101 18.7951C18.17 18.7973 18.4785 18.49 18.4785 18.1301C18.4785 17.7752 18.1859 17.4794 17.8287 17.4718M17.3046 18.1474C17.3136 18.4201 17.5394 18.643 17.8111 18.6451C18.0876 18.6467 18.3285 18.407 18.3285 18.1301C18.3285 17.858 18.1024 17.6277 17.8255 17.6217L17.8287 17.4718M17.3046 18.1474L17.8287 17.4718" fill="#64748B" stroke="#64748B" stroke-width="0.3"/>
</svg>
