<svg width="20" height="19" viewBox="0 0 20 19" fill="none" xmlns="http://www.w3.org/2000/svg">
<path d="M1 1V17.5H19" stroke="#64748B" stroke-width="1.5" stroke-linecap="round"/>
<path d="M13.4313 9.11951C14.5944 7.70595 15.7438 6.30943 16.9331 4.86406C16.7173 4.86406 16.5463 4.86974 16.3759 4.86293C15.7302 4.83794 15.3083 4.2632 15.4985 3.67256C15.6144 3.31193 15.9438 3.05011 16.3265 3.04671C17.1852 3.03875 18.0445 3.03819 18.9032 3.04671C19.3451 3.05125 19.7108 3.36758 19.7625 3.81283C19.8346 4.43301 19.8727 5.05659 19.9249 5.67903C19.9493 5.96924 19.9681 6.25945 19.9953 6.54909C20.0476 7.1085 19.6637 7.56738 19.1185 7.59293C18.6005 7.61736 18.1836 7.19936 18.1802 6.65132C18.1797 6.54 18.1802 6.42926 18.1802 6.25775C18.0496 6.41109 17.9553 6.52013 17.8622 6.63087C16.8678 7.8167 15.8739 9.00252 14.8795 10.1883C14.1565 11.0505 13.1013 11.1623 12.2187 10.4644C11.2834 9.72492 10.3526 8.9798 9.41945 8.23753C9.35925 8.18925 9.29792 8.14212 9.21898 8.08078C8.84926 8.52546 8.48749 8.95936 8.12572 9.39382C7.18127 10.5285 6.23681 11.6632 5.29235 12.798C5.05212 13.0865 4.75453 13.237 4.37345 13.1552C4.01679 13.0791 3.77883 12.8599 3.67945 12.5089C3.58744 12.1846 3.6715 11.8967 3.88844 11.6377C4.94081 10.3803 5.98976 9.12008 7.04042 7.86099C7.28576 7.56681 7.53111 7.27206 7.77758 6.97844C8.46761 6.15609 9.52963 6.03455 10.3747 6.69675C11.347 7.45834 12.309 8.23242 13.2757 9.00082C13.3194 9.03546 13.3648 9.06897 13.4313 9.11951Z" fill="#64748B"/>
</svg>
